<svg version="1.1" id="Layer_1" xmlns="http://www.w3.org/2000/svg" xmlns:xlink="http://www.w3.org/1999/xlink" x="0px" y="0px"
	 width="100%" viewBox="0 0 1000 1000" enable-background="new 0 0 1000 1000" xml:space="preserve">
<path fill="#FFFFFF" opacity="1.000000" stroke="none" 
	d="
M556.000000,1001.000000 
	C370.666656,1001.000000 185.833328,1001.000000 1.000000,1001.000000 
	C1.000000,667.666687 1.000000,334.333344 1.000000,1.000000 
	C334.333344,1.000000 667.666687,1.000000 1001.000000,1.000000 
	C1001.000000,334.333344 1001.000000,667.666687 1001.000000,1001.000000 
	C852.833313,1001.000000 704.666687,1001.000000 556.000000,1001.000000 
M625.042480,563.595886 
	C625.359680,564.075745 625.676941,564.555603 626.068909,565.742737 
	C629.190002,572.918030 629.190002,572.918030 635.887878,571.003174 
	C638.252686,571.008606 640.617432,571.014038 643.100891,571.801331 
	C644.255310,572.528687 645.392700,573.852112 646.566895,573.885559 
	C653.532104,574.083679 660.513611,574.158081 667.470642,573.847717 
	C669.024719,573.778381 670.502869,572.005615 672.842529,571.009949 
	C674.219727,571.016907 675.596924,571.023804 677.088379,571.785034 
	C679.757080,574.443237 684.007080,574.779785 685.505371,572.284729 
	C686.731018,570.243896 687.583923,567.979187 688.373108,566.300720 
	C686.809937,565.295837 685.321472,564.400269 683.896973,563.412476 
	C678.377136,559.584717 676.925293,552.282349 670.568298,548.764465 
	C666.629272,546.584656 664.115906,541.844421 660.931519,538.281372 
	C655.580688,532.294189 650.194031,526.339050 644.844727,520.350586 
	C642.346924,517.554321 639.973022,514.644531 637.415344,511.905273 
	C633.593628,507.812256 629.611389,503.868622 625.812561,499.755066 
	C625.039124,498.917511 624.256104,497.549988 624.371948,496.528137 
	C624.764587,493.064941 625.428711,489.696167 629.684143,488.528351 
	C630.890564,488.197235 631.777771,486.588989 632.740234,485.503326 
	C636.032959,481.789062 638.611938,476.676971 642.723694,474.629578 
	C649.223083,471.393280 650.661377,463.977295 656.540100,460.597778 
	C657.425659,460.088715 657.542053,458.241577 658.751221,456.996124 
	C662.785767,455.920135 665.137756,453.499115 665.741577,448.968811 
	C672.481445,442.975922 679.221313,436.983032 686.698242,430.864807 
	C686.868774,429.332336 687.728333,426.936768 687.085266,426.423462 
	C684.832092,424.624756 682.183533,422.869141 679.438965,422.313721 
	C677.881653,421.998535 675.844788,424.053284 673.420715,425.623383 
	C662.605957,425.429108 651.791138,425.234833 641.166199,424.239136 
	C642.651245,423.825714 644.131104,423.077972 645.622192,423.054901 
	C653.406982,422.934448 661.196533,423.085815 668.979309,422.911865 
	C670.282471,422.882690 671.560303,421.720612 672.849854,421.082092 
	C671.614990,420.388916 670.395508,419.130157 669.142700,419.096130 
	C662.024048,418.902618 654.894775,419.121399 647.774292,418.964172 
	C641.825867,418.832855 637.286987,421.125275 633.452576,425.847534 
	C628.583618,426.001434 626.436401,429.477112 623.738525,432.920746 
	C618.870361,439.134674 613.241455,444.752655 607.789246,450.775238 
	C606.573853,450.655792 605.049988,450.506042 602.403564,450.246002 
	C606.051575,453.801880 605.177551,456.928650 602.269226,458.387878 
	C599.205872,459.924896 598.983459,462.109070 598.087280,464.926300 
	C596.452393,466.166504 594.561951,467.181519 593.232117,468.690521 
	C589.708740,472.688446 586.427734,476.899994 582.250977,480.838776 
	C581.843933,480.184875 581.081909,479.530914 581.081970,478.877045 
	C581.083557,463.839172 580.951538,448.794739 581.408386,433.768677 
	C581.507141,430.519318 580.563721,430.032776 577.851379,429.566132 
	C577.677490,429.290070 577.433411,429.108093 576.959290,428.567474 
	C576.959290,428.567474 576.917969,428.089111 576.964539,427.252228 
	C575.754211,426.508362 574.567505,425.163086 573.329895,425.114471 
	C562.059570,424.671844 550.781433,424.397003 539.503418,424.196655 
	C533.806702,424.095459 531.416443,427.874115 533.405396,433.208130 
	C533.961731,434.700043 533.978455,436.451202 533.979614,438.083649 
	C534.009155,480.020538 534.005066,521.957458 533.998535,563.894348 
	C533.998352,565.221680 534.445679,567.018799 533.767151,567.791016 
	C531.437500,570.442322 533.422058,572.640137 533.446228,575.083618 
	C533.125366,575.381409 532.804443,575.679199 532.483521,575.976990 
	C532.689453,576.154480 532.895447,576.331970 533.101379,576.509521 
	C533.398926,576.004089 533.696411,575.498718 534.732422,574.899292 
	C536.109009,574.004700 537.494934,572.329163 538.860596,572.345520 
	C546.240173,572.434021 553.613892,572.959473 560.991272,573.298401 
	C565.605957,573.510437 570.230042,573.829590 574.832825,573.654114 
	C575.528564,573.627563 576.131348,571.165405 576.857788,569.854797 
	C576.857788,569.854797 576.829407,569.775391 577.624023,569.831848 
	C581.055481,569.392883 581.015564,566.934326 581.006104,564.302429 
	C580.953735,549.721497 580.968628,535.140198 580.987793,520.559082 
	C580.990051,518.848572 581.159851,517.138306 581.282104,514.869629 
	C582.564514,515.579712 583.228516,515.765381 583.627441,516.196411 
	C587.682556,520.577820 591.617126,525.074707 595.783875,529.345581 
	C596.611389,530.193787 598.282593,530.218811 599.847900,530.742310 
	C599.847900,530.742310 599.991455,531.014587 599.966370,531.790649 
	C600.721802,533.756958 601.144226,535.949951 602.298401,537.644775 
	C605.154663,541.838989 607.837341,546.365417 611.532715,549.719543 
	C616.030762,553.802368 617.855103,560.845276 624.978088,562.538391 
	C624.978088,562.538391 625.013977,562.990479 625.042480,563.595886 
M793.757202,484.652466 
	C793.499146,484.422333 793.241089,484.192200 792.813843,483.171844 
	C791.140564,482.782043 789.470032,482.068573 787.793579,482.054443 
	C775.978516,481.954529 764.162231,481.999176 752.346375,481.996216 
	C739.387512,481.992981 738.996338,481.575012 740.006226,468.843567 
	C740.032532,468.512207 739.896912,468.037903 740.070129,467.867859 
	C742.617188,465.367126 740.084595,458.992950 745.464294,459.156494 
	C763.016602,459.690033 780.682373,456.960510 798.132080,460.802460 
	C798.939941,460.980316 799.889709,460.513855 801.687561,460.175323 
	C800.153809,458.052551 799.050964,456.526154 797.787598,454.341858 
	C797.853149,453.899475 797.918640,453.457062 798.782471,452.836548 
	C799.121399,452.494843 799.754028,452.155121 799.756348,451.811218 
	C799.813354,443.258057 799.885498,434.702209 799.656311,426.154907 
	C799.637207,425.443695 797.494385,424.190033 796.353516,424.206970 
	C789.690613,424.305756 783.033691,424.924225 776.372131,424.967255 
	C757.917664,425.086426 739.461609,425.078400 721.007019,424.972626 
	C714.061279,424.932831 707.116943,424.337952 700.174194,424.379120 
	C699.093445,424.385559 698.024841,426.447662 696.691406,427.930359 
	C696.691406,427.930359 696.286316,428.132477 695.451965,428.068390 
	C694.691589,429.363617 693.409851,430.613281 693.291687,431.964661 
	C693.109314,434.050476 693.961975,436.205658 693.964417,438.331879 
	C694.012695,480.151428 694.013611,521.971008 693.958801,563.790527 
	C693.956543,565.523315 693.198914,567.242859 693.016724,568.991821 
	C692.878967,570.314819 692.597595,572.171387 693.299255,572.878845 
	C693.998291,573.583618 695.856628,573.302368 697.181885,573.181763 
	C698.913940,573.024170 700.656128,572.220764 702.332458,572.372742 
	C705.380249,572.649170 708.379761,573.898071 711.404602,573.917175 
	C733.563049,574.057251 755.723328,574.070801 777.882019,573.947021 
	C784.922913,573.907654 791.960754,573.330872 799.245300,573.412048 
	C799.596313,573.396545 799.947266,573.381042 800.298279,573.365601 
	C799.865540,573.243713 799.432739,573.121887 798.990662,572.166809 
	C798.939758,571.334900 798.888916,570.503052 798.851562,569.294739 
	C798.851562,569.294739 799.079773,568.994995 799.863586,568.816589 
	C800.241882,567.809021 800.931702,566.806335 800.947632,565.793091 
	C801.046265,559.516357 801.120667,553.232849 800.905518,546.961792 
	C800.848694,545.304382 799.744080,543.682922 798.819824,541.560913 
	C798.532043,541.314148 798.244324,541.067383 797.894165,540.140808 
	C796.632385,539.218201 795.339539,537.464844 794.113953,537.510620 
	C787.260864,537.766785 780.432373,538.701355 773.579407,538.936218 
	C765.603210,539.209656 757.610413,539.000610 749.624817,539.000854 
	C747.542297,539.000916 745.459839,539.000916 743.196228,539.000916 
	C742.750427,533.387207 742.172424,528.621887 742.042542,523.844360 
	C741.875977,517.717468 742.225403,517.559998 748.248840,518.521790 
	C748.862305,518.619751 749.519836,518.402100 750.158081,518.390564 
	C762.007874,518.175110 773.875732,517.499573 785.700928,517.946533 
	C792.198181,518.192078 797.936829,514.330994 797.980469,507.660675 
	C798.025818,500.730469 797.990601,493.799744 797.990601,486.309875 
	C797.208069,486.044891 795.672974,485.525085 793.757202,484.652466 
M305.913361,512.942322 
	C323.217194,512.942322 340.520996,512.942322 358.104248,512.942322 
	C358.104248,503.323853 358.104248,494.070038 358.104248,484.163361 
	C339.611908,484.163361 321.385834,484.163361 302.912689,484.163361 
	C302.912689,474.817444 302.912689,466.127197 302.912689,456.903259 
	C322.760925,456.903259 342.172241,456.903259 361.857941,456.903259 
	C361.857941,446.952026 361.857941,437.536774 361.857941,427.890259 
	C328.147247,427.890259 294.621033,427.890259 261.033508,427.890259 
	C261.033508,475.352234 261.033508,522.429138 261.033508,569.563232 
	C295.245819,569.563232 329.122681,569.563232 363.131958,569.563232 
	C363.131958,559.868530 363.131958,550.589722 363.131958,540.803711 
	C342.955200,540.803711 323.024048,540.803711 302.904999,540.803711 
	C302.904999,531.180664 302.904999,522.063599 303.619385,512.989868 
	C304.082336,512.891541 304.545288,512.793213 305.913361,512.942322 
M194.884109,514.028076 
	C194.884109,532.468872 194.884109,550.909729 194.884109,569.642944 
	C208.894379,569.642944 222.280365,569.642944 235.820190,569.642944 
	C235.820190,522.131897 235.820190,474.951721 235.820190,427.778687 
	C222.069077,427.778687 208.787460,427.778687 194.757095,427.778687 
	C194.757095,445.929443 194.757095,463.786346 194.757095,481.913910 
	C176.023346,481.913910 158.039642,481.815308 140.058685,481.994232 
	C136.304794,482.031586 135.222992,480.896729 135.269989,477.179962 
	C135.455368,462.518646 135.334763,447.853455 135.327927,433.189697 
	C135.327103,431.432495 135.327805,429.675262 135.327805,427.879761 
	C121.141983,427.879761 107.749336,427.879761 94.361374,427.879761 
	C94.361374,475.376190 94.361374,522.433777 94.361374,569.594849 
	C108.160194,569.594849 121.547256,569.594849 135.511322,569.594849 
	C135.511322,550.672424 135.511322,532.102051 135.511322,512.997314 
	C145.713806,512.997314 155.344467,513.027771 164.974838,512.988770 
	C174.632126,512.949646 184.289139,512.841309 194.387054,512.987488 
	C194.387054,512.987488 194.866211,513.109802 194.884109,514.028076 
M843.514954,353.916351 
	C835.198669,359.195862 828.700623,365.959534 825.372986,375.829926 
	C834.030762,377.317627 839.658508,381.892242 839.825134,390.656738 
	C840.002380,399.988617 833.777283,404.428009 825.106689,406.399780 
	C832.603027,423.030945 844.886475,432.486176 862.930054,433.428680 
	C880.341492,434.338165 893.808105,426.823486 902.214722,411.786682 
	C910.834961,396.367889 909.802856,380.715912 899.695312,366.108948 
	C888.535583,349.981384 865.649597,342.042297 843.514954,353.916351 
M507.512817,451.922607 
	C503.772156,445.193146 498.351837,440.176849 491.657715,436.495697 
	C479.992432,430.080841 467.362000,427.586456 454.185699,427.544647 
	C435.192566,427.484406 416.199066,427.534058 397.205719,427.536652 
	C393.924408,427.537079 390.643066,427.536713 387.253662,427.536713 
	C387.253662,475.277161 387.253662,522.448181 387.253662,569.624939 
	C401.081787,569.624939 414.481689,569.624939 428.267944,569.624939 
	C428.267944,567.791748 428.267242,566.315002 428.268005,564.838257 
	C428.275177,551.176453 428.432526,537.512146 428.202728,523.854309 
	C428.129517,519.502686 430.281281,518.407166 433.660431,519.209778 
	C435.504517,519.647827 437.431335,521.176331 438.611542,522.746277 
	C449.510254,537.244263 460.314026,551.815125 470.986084,566.480713 
	C472.852264,569.045166 474.803650,570.077698 477.998138,570.040955 
	C492.491058,569.873840 506.987000,569.977295 521.481873,569.958069 
	C522.702759,569.956421 523.923401,569.767700 526.013977,569.593384 
	C509.566956,550.548584 493.710907,532.188110 477.731537,513.684875 
	C510.846924,495.158234 519.551880,477.125153 507.512817,451.922607 
M682.853699,593.463074 
	C677.362000,590.597412 671.559937,590.091797 665.502563,590.968872 
	C656.316772,592.298828 649.396423,597.020813 646.461060,605.747375 
	C643.345398,615.009888 644.072754,624.135986 651.869568,631.393860 
	C656.952087,636.125061 663.140869,637.884705 669.856262,636.921143 
	C682.103516,635.163879 688.656982,630.638611 692.215393,619.427063 
	C695.173279,610.107483 691.412354,599.605469 682.853699,593.463074 
M609.366699,621.909485 
	C611.831482,625.638855 614.230042,629.414856 616.800110,633.070251 
	C617.606140,634.216614 618.814453,635.786438 619.940552,635.875671 
	C624.147705,636.209229 628.397156,636.009033 633.424194,636.009033 
	C632.539978,634.136292 632.231262,633.055115 631.598816,632.218811 
	C629.202393,629.049805 626.736023,625.931763 624.228882,622.849060 
	C621.930603,620.023132 621.190308,617.921204 625.004028,615.257507 
	C629.795776,611.910706 631.230713,606.480835 629.653259,601.002563 
	C628.178650,595.881165 624.211426,592.545959 618.772888,592.020630 
	C612.521362,591.416870 606.205872,591.507568 599.933838,591.071655 
	C595.863708,590.788757 594.835754,592.611755 594.898926,596.383606 
	C595.082825,607.355408 594.962280,618.332336 594.961975,629.307251 
	C594.961853,636.103455 594.981079,635.782166 601.614502,636.165710 
	C606.227722,636.432495 607.521423,634.754089 607.015564,630.492615 
	C606.723877,628.034241 606.872864,625.502380 607.069824,623.023193 
	C607.115112,622.453125 608.171753,621.963440 609.366699,621.909485 
M714.603149,634.004028 
	C722.040955,638.821533 729.916321,637.831909 737.515808,634.992310 
	C743.535339,632.743164 747.918396,628.365967 748.035583,621.338257 
	C748.189758,612.085388 748.081787,602.827637 748.010376,593.572571 
	C748.004761,592.846863 747.446533,591.525146 747.070923,591.497742 
	C744.107117,591.281616 740.971924,590.764893 738.223267,591.533875 
	C737.099487,591.848206 736.282776,595.091980 736.217346,597.033203 
	C735.965210,604.509583 736.175781,612.000427 736.011963,619.481384 
	C735.898560,624.660706 733.328674,627.000427 728.208435,627.065186 
	C722.907959,627.132202 720.132935,624.080322 719.994385,617.555786 
	C719.842590,610.407288 719.765991,603.246460 720.022888,596.104126 
	C720.168335,592.061035 718.564209,590.642883 714.758728,591.055603 
	C713.607300,591.180420 712.427246,591.161621 711.269165,591.080627 
	C708.319641,590.874268 707.030640,592.113831 707.086914,595.148376 
	C707.204041,601.466248 706.608765,607.841858 707.263428,614.093506 
	C707.984314,620.978394 707.214111,628.661316 714.603149,634.004028 
M556.430664,591.775330 
	C546.818542,593.818298 540.632690,600.158447 538.471802,609.144531 
	C536.394836,617.781250 539.088989,625.941162 546.426270,631.841003 
	C553.954712,637.894531 562.741760,637.562012 571.597351,636.542480 
	C576.404358,635.989075 578.941101,633.645996 578.122314,628.315857 
	C577.672913,625.390076 578.042236,622.338501 578.041565,619.343689 
	C578.039856,611.844788 577.045166,611.057434 569.565369,612.681763 
	C568.478699,612.917786 567.411316,613.242676 566.037903,613.604797 
	C566.037903,615.987549 566.037842,618.128357 566.037842,620.269226 
	C566.037842,622.371704 566.037903,624.474121 566.037903,626.352783 
	C559.073425,628.382141 551.409851,621.850098 551.042786,614.246826 
	C550.645081,606.006897 555.193604,600.823608 563.406799,600.983582 
	C567.768860,601.068542 572.116455,601.894775 576.639160,602.405457 
	C576.639160,598.748108 576.639160,595.190735 576.639160,590.530518 
	C569.899170,590.864319 563.556274,591.178467 556.430664,591.775330 
M765.734070,592.364990 
	C765.495911,606.116760 765.215942,619.868286 765.127380,633.620972 
	C765.122253,634.415771 766.616333,635.825928 767.510986,635.910522 
	C770.556152,636.198486 773.645386,636.020691 777.256470,636.020691 
	C777.256470,630.875732 777.256470,626.626770 777.256470,623.890198 
	C783.375610,621.374390 788.662964,619.640381 793.521362,617.089417 
	C799.313049,614.048523 799.514404,608.295898 798.860413,602.675903 
	C798.279175,597.680664 793.922668,592.712585 788.790955,592.284851 
	C781.420593,591.670471 773.966675,592.058716 765.734070,592.364990 
M445.236389,601.891174 
	C447.691162,603.050537 449.856934,602.620483 449.698914,599.668457 
	C449.538940,596.680908 452.402344,591.916016 446.811981,591.182922 
	C442.135681,590.569763 437.205078,590.515747 432.570007,591.297974 
	C425.933685,592.417847 420.521912,596.188965 417.204315,602.166626 
	C412.206665,611.171448 413.025269,620.339050 418.588531,628.614929 
	C424.056213,636.748596 432.799835,637.738159 441.774567,636.875122 
	C449.814941,636.101990 451.371155,633.575073 449.209778,625.160156 
	C447.629883,625.484070 446.008514,625.710938 444.449127,626.155273 
	C439.115784,627.675110 434.069855,627.346191 430.374298,622.836853 
	C426.637695,618.277405 426.051636,613.034729 428.147034,607.380066 
	C429.495880,603.740112 431.723755,601.321167 435.560303,601.081848 
	C438.499176,600.898560 441.482941,601.434631 445.236389,601.891174 
M475.993042,623.488525 
	C475.993042,627.568298 475.993042,631.648071 475.993042,636.075684 
	C478.877441,636.075684 480.886688,635.866516 482.836334,636.118469 
	C487.118652,636.671936 488.243622,634.804749 488.065613,630.751648 
	C487.766357,623.938293 487.986359,617.102234 487.981354,610.275757 
	C487.975342,602.081238 487.981018,602.229492 496.052765,601.759888 
	C497.738464,601.661926 500.306549,600.352234 500.756226,599.022217 
	C501.533966,596.721863 500.971985,593.968506 500.971985,591.091309 
	C488.571625,591.091309 477.096527,590.981689 465.630585,591.254578 
	C464.435822,591.283081 462.467133,593.461914 462.272156,594.842834 
	C461.414520,600.915894 462.408020,601.836426 468.520142,601.877014 
	C470.814362,601.892273 473.108795,601.879517 475.532837,601.879517 
	C475.564026,601.939575 475.843475,602.228394 475.846405,602.519897 
	C475.913513,609.176880 475.950470,615.834229 475.993042,623.488525 
M770.825073,395.409943 
	C772.045776,397.548950 772.872314,400.086792 774.559143,401.754303 
	C780.260254,407.390228 788.749939,407.644012 795.020325,402.738525 
	C800.548523,398.413696 802.025330,389.854004 798.382263,383.251831 
	C794.839050,376.830475 786.681885,374.180389 779.253296,377.037170 
	C772.554504,379.613312 769.001526,386.867096 770.825073,395.409943 
M399.857941,602.539551 
	C399.857910,600.374512 399.709930,598.197083 399.891113,596.047302 
	C400.193787,592.456177 398.908966,590.657166 395.098206,591.052185 
	C393.614716,591.205933 391.867737,590.616455 390.665222,591.216370 
	C389.235840,591.929504 387.270447,593.539124 387.246002,594.793579 
	C386.996582,607.612244 387.042175,620.438232 387.189148,633.260071 
	C387.201813,634.363586 388.514160,636.376526 389.250183,636.389282 
	C392.665192,636.448669 396.089844,635.951477 399.857574,635.623352 
	C399.857574,624.706665 399.857574,614.118042 399.857941,602.539551 
M748.588623,533.847351 
	C748.915771,533.151123 749.242981,532.454956 749.570129,531.758789 
	C749.152710,531.684387 748.735291,531.609985 748.317871,531.535522 
	C748.192871,532.274170 748.067871,533.012878 748.588623,533.847351 
M688.588013,561.517273 
	C688.588013,561.517273 688.477417,561.583374 688.588013,561.517273 
z"/>
<path fill="#047ABF" opacity="1.000000" stroke="none" 
	d="
M576.917969,428.089111 
	C576.917969,428.089111 576.959290,428.567474 576.946533,429.251709 
	C576.996216,450.915009 577.058655,471.894043 577.114258,493.195496 
	C577.841064,493.708252 578.998352,494.291870 579.242981,494.028381 
	C581.822693,491.248810 584.347229,488.406219 586.713623,485.442596 
	C592.549438,478.133667 598.205139,470.679596 604.105835,463.424255 
	C608.331299,458.228912 612.804565,453.233124 617.224121,448.198242 
	C622.211304,442.516632 627.244324,436.874847 632.312622,431.265656 
	C632.826050,430.697418 633.687500,430.224274 634.440613,430.129364 
	C638.034973,429.676392 641.643066,429.130096 645.254944,429.059113 
	C653.242859,428.902130 661.240295,428.862305 669.224487,429.095886 
	C671.789062,429.170898 674.324219,430.252869 677.005310,430.906464 
	C674.961914,433.406281 673.715576,435.227325 672.179504,436.757507 
	C666.249878,442.664459 660.211853,448.462402 654.246826,454.333984 
	C651.307617,457.227081 648.453552,460.206329 645.536682,463.122314 
	C637.666931,470.989716 629.696411,478.759430 621.969849,486.764771 
	C620.107361,488.694458 616.444580,490.126740 618.248657,494.407288 
	C618.106201,495.177582 618.033813,495.619202 617.689758,496.280151 
	C616.339905,500.504852 618.950745,502.630585 621.637451,504.677002 
	C622.651978,505.449799 624.008362,505.869324 624.825928,506.790009 
	C631.186768,513.952759 637.361755,521.281860 643.779602,528.392151 
	C648.862854,534.023926 654.235229,539.393677 659.428894,544.927002 
	C663.477539,549.240417 667.519226,553.564453 671.427673,558.003784 
	C673.727051,560.615479 675.760254,563.461426 678.272766,566.659729 
	C676.757812,567.203125 675.743347,567.896362 674.745056,567.873779 
	C665.302734,567.660217 655.839905,566.791138 646.430481,567.201111 
	C639.481873,567.503784 632.845154,568.802002 629.168579,560.858521 
	C628.954773,560.396545 627.845154,560.414307 627.470886,559.951355 
	C623.980652,555.633850 619.457703,551.723755 617.382446,546.791687 
	C614.402771,539.709900 608.882446,536.377686 602.877380,533.074463 
	C602.934204,533.015381 602.859009,533.161011 602.909790,532.781433 
	C602.560974,531.361145 602.365051,530.171082 601.729187,529.303467 
	C596.916138,522.736450 592.109802,516.159912 587.096436,509.746552 
	C585.202698,507.323975 582.891113,505.171265 580.492126,503.240845 
	C579.902710,502.766602 578.223572,503.646759 577.038696,504.383392 
	C577.055908,525.564514 577.079773,546.266479 577.022705,567.313965 
	C576.904236,568.364807 576.866821,569.070068 576.829407,569.775391 
	C576.829407,569.775391 576.857788,569.854797 576.367981,569.818481 
	C562.667358,569.782104 549.456482,569.782104 536.267273,569.782104 
	C536.267273,522.029907 536.267273,475.203766 536.267273,428.089111 
	C550.059875,428.089111 563.488953,428.089111 576.917969,428.089111 
z"/>
<path fill="#017BC1" opacity="1.000000" stroke="none" 
	d="
M194.866211,513.109802 
	C194.866211,513.109802 194.387054,512.987488 194.129211,512.516479 
	C191.818634,511.036224 189.796646,509.226105 187.708267,509.145996 
	C172.774979,508.573029 157.827316,508.384796 142.886047,508.002808 
	C137.391449,507.862396 134.043579,510.989471 134.011246,516.839722 
	C133.939468,529.827209 134.022018,542.815491 133.939713,555.802795 
	C133.928741,557.534729 133.325546,559.263000 132.699219,561.032532 
	C132.589127,561.729431 132.776398,562.386658 132.967865,563.453857 
	C131.909882,564.921021 130.934662,566.772888 129.770676,566.900269 
	C124.226715,567.507141 118.631432,567.645081 112.941475,567.563354 
	C107.880829,566.803528 102.933113,566.430237 97.741547,565.879761 
	C97.308548,565.141846 97.119400,564.581055 96.948906,563.680664 
	C96.642784,562.560608 96.318016,561.780090 95.997978,560.531006 
	C96.002625,517.706726 96.002533,475.351105 96.416809,432.940521 
	C102.247612,432.761414 107.675598,432.362518 113.077286,432.589386 
	C118.623650,432.822388 124.090828,433.335388 129.242661,429.956299 
	C129.676559,429.974121 129.850113,429.981323 130.184204,430.236267 
	C130.895508,430.658203 131.446289,430.832397 132.006180,431.251190 
	C132.015305,431.495758 132.039627,431.984650 132.190704,432.233521 
	C132.878922,432.675507 133.416061,432.868591 133.961212,433.526367 
	C133.977325,449.658417 133.985428,465.325714 133.679504,481.039062 
	C133.214767,481.956665 133.064056,482.828217 132.913345,483.699768 
	C133.610855,483.778076 134.308350,483.856384 135.263702,483.949707 
	C135.693420,483.975067 135.865295,483.985443 136.199127,484.320007 
	C139.173218,485.786041 143.020340,486.175415 144.535934,488.259918 
	C146.436462,490.873901 148.323578,490.978455 150.786987,490.979156 
	C161.413574,490.982208 172.040390,491.021820 182.666611,490.960327 
	C186.961975,490.935486 191.701035,492.244263 194.631775,487.361633 
	C194.894516,486.923859 196.187378,487.104401 197.056396,487.131714 
	C197.192429,487.314972 197.273880,487.364258 197.355316,487.413544 
	C197.236084,487.276306 197.116852,487.139069 197.045380,486.660278 
	C197.913635,484.738312 198.734116,483.157928 199.771774,481.159180 
	C197.967590,481.061493 197.000076,481.009094 196.034912,480.490784 
	C196.036926,466.421661 196.015915,452.818451 196.061264,439.215424 
	C196.067261,437.416504 196.303223,435.599121 196.623657,433.824799 
	C197.144440,430.941101 198.322556,429.384338 201.778656,430.647888 
	C203.244141,431.183624 205.243698,430.258545 207.240387,430.300323 
	C213.658386,430.722534 219.836502,430.841858 226.438263,430.964020 
	C228.916138,431.640686 230.970352,432.314545 232.850433,433.370789 
	C232.450897,435.376221 232.030197,436.999115 232.028702,438.622375 
	C231.992081,478.195404 231.988510,517.768433 232.043045,557.341431 
	C232.045181,558.896362 232.678940,560.450439 232.973404,562.394165 
	C232.415375,566.172302 230.560822,567.307861 227.083466,567.101257 
	C221.630981,566.777466 216.137695,567.180786 210.677124,566.934265 
	C208.328735,566.828247 205.294128,564.639954 203.820465,565.510986 
	C198.222427,568.819824 198.098511,565.189819 197.655899,561.449768 
	C197.424362,559.493469 197.022888,557.536194 197.013580,555.577942 
	C196.953812,542.976807 197.054611,530.374390 196.886795,517.775208 
	C196.865967,516.211365 195.570862,514.664551 194.866211,513.109802 
z"/>
<path fill="#027BC1" opacity="1.000000" stroke="none" 
	d="
M305.008240,512.694885 
	C304.545288,512.793213 304.082336,512.891541 303.023926,512.732666 
	C301.950806,513.489807 301.118805,514.483826 301.058899,515.522339 
	C300.838654,519.340332 301.962097,523.641785 300.561768,526.891663 
	C298.406067,531.894592 299.156464,536.133972 300.764984,540.785706 
	C301.644806,543.330139 302.638245,544.253540 305.705170,544.138733 
	C322.235229,543.520325 338.781830,543.353027 355.321289,542.968994 
	C359.315308,542.876343 361.267639,544.625122 361.016052,548.649536 
	C360.716644,553.438416 360.264526,558.220703 360.093231,563.013550 
	C359.985535,566.028137 358.585968,567.059998 355.710144,567.054749 
	C328.552307,567.005432 301.394073,567.081177 274.236847,566.940979 
	C270.673004,566.922607 266.691803,566.632324 263.764252,564.961060 
	C262.615723,564.305359 263.847809,559.507263 263.964203,556.594421 
	C264.010712,555.429993 263.972382,554.262146 263.972382,553.095886 
	C263.972412,512.521301 263.972412,471.946747 263.972412,431.624664 
	C269.220581,431.081879 274.537628,430.172638 279.872101,430.054993 
	C291.029755,429.809021 302.198425,429.853607 313.359253,430.012756 
	C327.146454,430.209320 340.929138,430.726562 354.716339,430.920441 
	C358.462006,430.973145 359.069244,432.880249 359.061218,436.000946 
	C359.048370,440.978241 359.289062,445.958374 359.510529,450.933380 
	C359.649414,454.053101 358.155121,455.014038 355.248932,454.658936 
	C353.310760,454.422150 351.338440,454.367279 349.382904,454.386292 
	C336.252441,454.513733 323.021484,455.753204 310.021545,454.527466 
	C297.820496,453.377014 300.167511,455.641724 300.095490,464.236023 
	C300.088806,465.034698 300.690338,465.835541 300.696259,466.637695 
	C300.736816,472.126709 302.636566,477.856903 298.714081,482.462769 
	C299.949158,486.531830 302.688599,487.099274 306.207153,487.061188 
	C320.534210,486.906067 334.865479,486.890076 349.190735,487.112885 
	C351.121246,487.142914 354.599182,488.697052 354.684906,489.761017 
	C355.203033,496.191681 354.942780,502.685059 354.942780,509.020142 
	C338.852905,509.020142 324.222137,509.041168 309.591522,509.000671 
	C306.965820,508.993408 304.852631,509.370453 305.008240,512.694885 
z"/>
<path fill="#097ABD" opacity="1.000000" stroke="none" 
	d="
M843.838257,353.734985 
	C865.649597,342.042297 888.535583,349.981384 899.695312,366.108948 
	C909.802856,380.715912 910.834961,396.367889 902.214722,411.786682 
	C893.808105,426.823486 880.341492,434.338165 862.930054,433.428680 
	C844.886475,432.486176 832.603027,423.030945 825.106689,406.399780 
	C833.777283,404.428009 840.002380,399.988617 839.825134,390.656738 
	C839.658508,381.892242 834.030762,377.317627 825.372986,375.829926 
	C828.700623,365.959534 835.198669,359.195862 843.838257,353.734985 
M879.939880,395.800171 
	C880.043396,391.504150 881.532715,386.597260 879.963928,383.038391 
	C876.626892,375.468292 865.602051,372.551880 857.947266,376.024170 
	C851.285828,379.045837 847.142029,385.624878 848.117920,391.629883 
	C849.694885,401.333069 855.347900,407.430176 863.521423,408.243103 
	C871.571045,409.043701 878.931519,403.606232 878.943909,396.405792 
	C878.943909,396.405792 879.179565,396.008301 879.939880,395.800171 
z"/>
<path fill="#2379AA" opacity="1.000000" stroke="none" 
	d="
M305.460815,512.818604 
	C304.852631,509.370453 306.965820,508.993408 309.591522,509.000671 
	C324.222137,509.041168 338.852905,509.020142 354.942780,509.020142 
	C354.942780,502.685059 355.203033,496.191681 354.684906,489.761017 
	C354.599182,488.697052 351.121246,487.142914 349.190735,487.112885 
	C334.865479,486.890076 320.534210,486.906067 306.207153,487.061188 
	C302.688599,487.099274 299.949158,486.531830 298.714081,482.462769 
	C302.636566,477.856903 300.736816,472.126709 300.696259,466.637695 
	C300.690338,465.835541 300.088806,465.034698 300.095490,464.236023 
	C300.167511,455.641724 297.820496,453.377014 310.021545,454.527466 
	C323.021484,455.753204 336.252441,454.513733 349.382904,454.386292 
	C351.338440,454.367279 353.310760,454.422150 355.248932,454.658936 
	C358.155121,455.014038 359.649414,454.053101 359.510529,450.933380 
	C359.289062,445.958374 359.048370,440.978241 359.061218,436.000946 
	C359.069244,432.880249 358.462006,430.973145 354.716339,430.920441 
	C340.929138,430.726562 327.146454,430.209320 313.359253,430.012756 
	C302.198425,429.853607 291.029755,429.809021 279.872101,430.054993 
	C274.537628,430.172638 269.220581,431.081879 263.972412,431.624664 
	C263.972412,471.946747 263.972412,512.521301 263.972382,553.095886 
	C263.972382,554.262146 264.010712,555.429993 263.964203,556.594421 
	C263.847809,559.507263 262.615723,564.305359 263.764252,564.961060 
	C266.691803,566.632324 270.673004,566.922607 274.236847,566.940979 
	C301.394073,567.081177 328.552307,567.005432 355.710144,567.054749 
	C358.585968,567.059998 359.985535,566.028137 360.093231,563.013550 
	C360.264526,558.220703 360.716644,553.438416 361.016052,548.649536 
	C361.267639,544.625122 359.315308,542.876343 355.321289,542.968994 
	C338.781830,543.353027 322.235229,543.520325 305.705170,544.138733 
	C302.638245,544.253540 301.644806,543.330139 300.764984,540.785706 
	C299.156464,536.133972 298.406067,531.894592 300.561768,526.891663 
	C301.962097,523.641785 300.838654,519.340332 301.058899,515.522339 
	C301.118805,514.483826 301.950806,513.489807 302.666718,512.710938 
	C302.904999,522.063599 302.904999,531.180664 302.904999,540.803711 
	C323.024048,540.803711 342.955200,540.803711 363.131958,540.803711 
	C363.131958,550.589722 363.131958,559.868530 363.131958,569.563232 
	C329.122681,569.563232 295.245819,569.563232 261.033508,569.563232 
	C261.033508,522.429138 261.033508,475.352234 261.033508,427.890259 
	C294.621033,427.890259 328.147247,427.890259 361.857941,427.890259 
	C361.857941,437.536774 361.857941,446.952026 361.857941,456.903259 
	C342.172241,456.903259 322.760925,456.903259 302.912689,456.903259 
	C302.912689,466.127197 302.912689,474.817444 302.912689,484.163361 
	C321.385834,484.163361 339.611908,484.163361 358.104248,484.163361 
	C358.104248,494.070038 358.104248,503.323853 358.104248,512.942322 
	C340.520996,512.942322 323.217194,512.942322 305.460815,512.818604 
z"/>
<path fill="#287DAB" opacity="1.000000" stroke="none" 
	d="
M507.702698,452.238861 
	C519.551880,477.125153 510.846924,495.158234 477.731537,513.684875 
	C493.710907,532.188110 509.566956,550.548584 526.013977,569.593384 
	C523.923401,569.767700 522.702759,569.956421 521.481873,569.958069 
	C506.987000,569.977295 492.491058,569.873840 477.998138,570.040955 
	C474.803650,570.077698 472.852264,569.045166 470.986084,566.480713 
	C460.314026,551.815125 449.510254,537.244263 438.611542,522.746277 
	C437.431335,521.176331 435.504517,519.647827 433.660431,519.209778 
	C430.281281,518.407166 428.129517,519.502686 428.202728,523.854309 
	C428.432526,537.512146 428.275177,551.176453 428.268005,564.838257 
	C428.267242,566.315002 428.267944,567.791748 428.267944,569.624939 
	C414.481689,569.624939 401.081787,569.624939 387.253662,569.624939 
	C387.253662,522.448181 387.253662,475.277161 387.253662,427.536713 
	C390.643066,427.536713 393.924408,427.537079 397.205719,427.536652 
	C416.199066,427.534058 435.192566,427.484406 454.185699,427.544647 
	C467.362000,427.586456 479.992432,430.080841 491.657715,436.495697 
	C498.351837,440.176849 503.772156,445.193146 507.702698,452.238861 
M388.980713,531.500000 
	C388.985962,541.496643 388.827271,551.498596 389.145508,561.485229 
	C389.203796,563.314209 391.201813,565.081360 392.304474,566.877075 
	C396.041779,563.569763 399.673065,567.224426 403.382599,567.081055 
	C408.872620,566.868958 414.384094,566.850891 419.872559,567.080994 
	C423.813934,567.246277 425.134552,565.720032 425.085358,561.831482 
	C424.919006,548.671265 425.018188,535.507690 425.015991,522.345398 
	C425.015656,520.411804 425.015930,518.478271 425.015930,517.049744 
	C433.691620,513.562927 439.395294,516.264954 443.791016,523.162842 
	C446.813965,527.906616 450.236603,532.399536 453.556580,536.949097 
	C456.681610,541.231567 459.967957,545.396973 463.070801,549.695068 
	C466.638702,554.637329 472.978271,557.554199 473.709106,564.717529 
	C473.805725,565.664673 477.222595,566.900452 479.120483,566.933655 
	C490.779663,567.137329 502.444336,567.049316 514.106995,567.008301 
	C515.308289,567.004089 516.508484,566.669861 518.752625,566.331421 
	C515.015137,562.173523 511.966797,558.785400 508.922028,555.394043 
	C506.299988,552.473572 503.625061,549.598206 501.074493,546.616516 
	C496.084198,540.782776 491.175659,534.879089 486.211243,529.023071 
	C482.906281,525.124512 479.284515,521.458008 476.319580,517.318665 
	C473.629028,513.562439 475.459717,508.777710 480.006622,508.152100 
	C486.795441,507.217987 490.576477,501.698181 496.018311,498.782471 
	C497.625031,497.921631 498.783295,496.230286 500.160706,494.933990 
	C505.498413,489.910675 507.744476,483.523865 508.080261,476.406982 
	C508.316284,471.403503 508.960999,466.259430 508.133698,461.397583 
	C506.186188,449.952332 496.773773,443.833374 488.215363,438.319458 
	C481.853546,434.220764 473.566559,432.085297 465.902496,431.263977 
	C453.224915,429.905396 440.358917,430.077026 427.571198,430.045807 
	C417.120270,430.020294 406.668274,430.656097 396.215790,430.967560 
	C388.983246,431.183075 388.978882,431.159363 388.978729,438.530518 
	C388.978088,469.187012 388.979828,499.843506 388.980713,531.500000 
z"/>
<path fill="#2379AA" opacity="1.000000" stroke="none" 
	d="
M96.930260,564.020264 
	C97.119400,564.581055 97.308548,565.141846 97.839874,566.268433 
	C103.139503,567.206116 108.096954,567.578003 113.054405,567.949829 
	C118.631432,567.645081 124.226715,567.507141 129.770676,566.900269 
	C130.934662,566.772888 131.909882,564.921021 132.980560,563.111633 
	C132.991577,561.903992 132.994095,561.448425 132.996613,560.992920 
	C133.325546,559.263000 133.928741,557.534729 133.939713,555.802795 
	C134.022018,542.815491 133.939468,529.827209 134.011246,516.839722 
	C134.043579,510.989471 137.391449,507.862396 142.886047,508.002808 
	C157.827316,508.384796 172.774979,508.573029 187.708267,509.145996 
	C189.796646,509.226105 191.818634,511.036224 193.908813,512.404358 
	C184.289139,512.841309 174.632126,512.949646 164.974838,512.988770 
	C155.344467,513.027771 145.713806,512.997314 135.511322,512.997314 
	C135.511322,532.102051 135.511322,550.672424 135.511322,569.594849 
	C121.547256,569.594849 108.160194,569.594849 94.361374,569.594849 
	C94.361374,522.433777 94.361374,475.376190 94.361374,427.879761 
	C107.749336,427.879761 121.141983,427.879761 135.327805,427.879761 
	C135.327805,429.675262 135.327103,431.432495 135.327927,433.189697 
	C135.334763,447.853455 135.455368,462.518646 135.269989,477.179962 
	C135.222992,480.896729 136.304794,482.031586 140.058685,481.994232 
	C158.039642,481.815308 176.023346,481.913910 194.757095,481.913910 
	C194.757095,463.786346 194.757095,445.929443 194.757095,427.778687 
	C208.787460,427.778687 222.069077,427.778687 235.820190,427.778687 
	C235.820190,474.951721 235.820190,522.131897 235.820190,569.642944 
	C222.280365,569.642944 208.894379,569.642944 194.884109,569.642944 
	C194.884109,550.909729 194.884109,532.468872 194.875153,513.568970 
	C195.570862,514.664551 196.865967,516.211365 196.886795,517.775208 
	C197.054611,530.374390 196.953812,542.976807 197.013580,555.577942 
	C197.022888,557.536194 197.424362,559.493469 197.655899,561.449768 
	C198.098511,565.189819 198.222427,568.819824 203.820465,565.510986 
	C205.294128,564.639954 208.328735,566.828247 210.677124,566.934265 
	C216.137695,567.180786 221.630981,566.777466 227.083466,567.101257 
	C230.560822,567.307861 232.415375,566.172302 233.265625,562.096375 
	C233.732162,560.764832 233.974396,560.120361 233.974716,559.475830 
	C233.994980,518.545227 234.004028,477.614594 233.957031,436.684021 
	C233.955612,435.451782 233.349014,434.220245 233.024582,432.988403 
	C230.970352,432.314545 228.916138,431.640686 226.235382,430.625366 
	C219.406082,430.188416 213.203293,430.092926 207.000504,429.997437 
	C205.243698,430.258545 203.244141,431.183624 201.778656,430.647888 
	C198.322556,429.384338 197.144440,430.941101 196.623657,433.824799 
	C196.303223,435.599121 196.067261,437.416504 196.061264,439.215424 
	C196.015915,452.818451 196.036926,466.421661 196.005554,480.910034 
	C194.594681,482.527679 193.220291,483.887268 191.835571,483.897888 
	C173.236954,484.040405 154.636887,483.994781 136.037186,483.995819 
	C135.865295,483.985443 135.693420,483.975067 135.237976,483.637817 
	C134.634109,482.538330 134.313828,481.765686 133.993530,480.993042 
	C133.985428,465.325714 133.977325,449.658417 133.819458,433.266968 
	C133.126343,432.356750 132.582993,432.170715 132.039627,431.984650 
	C132.039627,431.984650 132.015305,431.495758 131.844376,431.003876 
	C131.123520,430.337524 130.573608,430.163025 130.023682,429.988556 
	C129.850113,429.981323 129.676559,429.974121 128.944611,429.670502 
	C118.830727,429.250854 109.272018,428.978394 99.723572,429.183411 
	C98.456497,429.210602 97.241539,431.665131 96.002441,432.995483 
	C96.002533,475.351105 96.002625,517.706726 95.746140,560.729126 
	C95.969803,562.270691 96.450035,563.145447 96.930260,564.020264 
z"/>
<path fill="#C7C8C9" opacity="1.000000" stroke="none" 
	d="
M683.178833,593.651489 
	C691.412354,599.605469 695.173279,610.107483 692.215393,619.427063 
	C688.656982,630.638611 682.103516,635.163879 669.856262,636.921143 
	C663.140869,637.884705 656.952087,636.125061 651.869568,631.393860 
	C644.072754,624.135986 643.345398,615.009888 646.461060,605.747375 
	C649.396423,597.020813 656.316772,592.298828 665.502563,590.968872 
	C671.559937,590.091797 677.362000,590.597412 683.178833,593.651489 
M674.519348,601.778870 
	C667.048462,598.302246 659.647705,601.036255 658.253845,608.158813 
	C657.628601,611.354248 657.763184,614.848022 658.290833,618.086304 
	C659.212036,623.740173 663.527100,627.067017 669.046875,627.059631 
	C674.878723,627.051880 678.603455,624.102356 679.741882,618.081238 
	C680.873718,612.095276 679.993958,606.515015 674.519348,601.778870 
z"/>
<path fill="#C7C8C9" opacity="1.000000" stroke="none" 
	d="
M609.064819,621.673096 
	C608.171753,621.963440 607.115112,622.453125 607.069824,623.023193 
	C606.872864,625.502380 606.723877,628.034241 607.015564,630.492615 
	C607.521423,634.754089 606.227722,636.432495 601.614502,636.165710 
	C594.981079,635.782166 594.961853,636.103455 594.961975,629.307251 
	C594.962280,618.332336 595.082825,607.355408 594.898926,596.383606 
	C594.835754,592.611755 595.863708,590.788757 599.933838,591.071655 
	C606.205872,591.507568 612.521362,591.416870 618.772888,592.020630 
	C624.211426,592.545959 628.178650,595.881165 629.653259,601.002563 
	C631.230713,606.480835 629.795776,611.910706 625.004028,615.257507 
	C621.190308,617.921204 621.930603,620.023132 624.228882,622.849060 
	C626.736023,625.931763 629.202393,629.049805 631.598816,632.218811 
	C632.231262,633.055115 632.539978,634.136292 633.424194,636.009033 
	C628.397156,636.009033 624.147705,636.209229 619.940552,635.875671 
	C618.814453,635.786438 617.606140,634.216614 616.800110,633.070251 
	C614.230042,629.414856 611.831482,625.638855 609.064819,621.673096 
M606.959473,606.459229 
	C606.214050,611.376587 609.341125,611.331970 612.720093,610.946045 
	C616.282715,610.539185 617.398621,608.259277 617.015259,605.047729 
	C616.587402,601.464050 613.297852,600.357056 607.214111,601.780396 
	C607.132690,602.985657 607.046143,604.266663 606.959473,606.459229 
z"/>
<path fill="#3082AE" opacity="1.000000" stroke="none" 
	d="
M797.984192,453.014679 
	C797.918640,453.457062 797.853149,453.899475 797.697021,455.033142 
	C796.469360,456.139618 795.332947,456.914246 794.195129,456.916290 
	C775.790955,456.949310 757.386475,456.884216 739.053162,456.490997 
	C742.892395,451.584106 747.922913,454.983276 752.164185,454.626617 
	C762.529541,453.754944 773.052551,454.888031 783.513672,454.949585 
	C786.979309,454.969940 790.491333,454.372803 793.888916,453.631012 
	C794.737854,453.445679 795.799133,451.596649 795.783325,450.526855 
	C795.699768,444.900208 795.425171,439.266602 794.896667,433.665649 
	C794.804749,432.692383 793.276611,431.240356 792.244812,431.079224 
	C788.331299,430.468079 784.350159,430.021362 780.392395,430.005859 
	C756.901123,429.913971 733.409241,429.923340 709.917847,430.001221 
	C706.571411,430.012299 703.226746,430.580658 698.965088,430.976074 
	C698.965088,432.300537 698.965027,434.204010 698.965027,436.107513 
	C698.964844,476.426453 698.960266,516.745361 698.972961,557.064331 
	C698.973999,560.256104 697.866272,564.968994 699.465942,566.261108 
	C701.545898,567.941223 705.821289,567.012939 709.152100,567.017578 
	C732.976929,567.050842 756.801697,567.043030 780.626526,567.029419 
	C784.873718,567.027039 789.136292,567.115112 793.356384,566.751160 
	C794.322205,566.667908 795.819580,564.947632 795.916565,563.876099 
	C796.483948,557.608154 796.707764,551.309082 797.297913,544.802368 
	C797.692200,543.486450 797.836243,542.388611 797.976990,541.173096 
	C797.973755,541.055420 797.956604,540.820557 797.956604,540.820557 
	C798.244324,541.067383 798.532043,541.314148 798.856323,542.255249 
	C798.955139,551.631348 799.017456,560.313171 799.079773,568.994995 
	C799.079773,568.994995 798.851562,569.294739 798.389832,569.526489 
	C764.653198,569.801392 731.378235,569.846619 698.103333,569.865784 
	C697.658997,569.866028 697.214478,569.536682 696.286316,569.170166 
	C696.286316,522.221863 696.286316,475.177155 696.286316,428.132477 
	C696.286316,428.132477 696.691406,427.930359 697.238647,427.812317 
	C729.499084,427.631561 761.212769,427.630737 792.924988,427.422668 
	C796.618958,427.398468 797.911255,428.347900 797.811279,432.119812 
	C797.626953,439.078369 797.901062,446.049042 797.984192,453.014679 
z"/>
<path fill="#C7C8C9" opacity="1.000000" stroke="none" 
	d="
M714.312378,633.770752 
	C707.214111,628.661316 707.984314,620.978394 707.263428,614.093506 
	C706.608765,607.841858 707.204041,601.466248 707.086914,595.148376 
	C707.030640,592.113831 708.319641,590.874268 711.269165,591.080627 
	C712.427246,591.161621 713.607300,591.180420 714.758728,591.055603 
	C718.564209,590.642883 720.168335,592.061035 720.022888,596.104126 
	C719.765991,603.246460 719.842590,610.407288 719.994385,617.555786 
	C720.132935,624.080322 722.907959,627.132202 728.208435,627.065186 
	C733.328674,627.000427 735.898560,624.660706 736.011963,619.481384 
	C736.175781,612.000427 735.965210,604.509583 736.217346,597.033203 
	C736.282776,595.091980 737.099487,591.848206 738.223267,591.533875 
	C740.971924,590.764893 744.107117,591.281616 747.070923,591.497742 
	C747.446533,591.525146 748.004761,592.846863 748.010376,593.572571 
	C748.081787,602.827637 748.189758,612.085388 748.035583,621.338257 
	C747.918396,628.365967 743.535339,632.743164 737.515808,634.992310 
	C729.916321,637.831909 722.040955,638.821533 714.312378,633.770752 
z"/>
<path fill="#C7C8C9" opacity="1.000000" stroke="none" 
	d="
M556.822021,591.633911 
	C563.556274,591.178467 569.899170,590.864319 576.639160,590.530518 
	C576.639160,595.190735 576.639160,598.748108 576.639160,602.405457 
	C572.116455,601.894775 567.768860,601.068542 563.406799,600.983582 
	C555.193604,600.823608 550.645081,606.006897 551.042786,614.246826 
	C551.409851,621.850098 559.073425,628.382141 566.037903,626.352783 
	C566.037903,624.474121 566.037842,622.371704 566.037842,620.269226 
	C566.037842,618.128357 566.037903,615.987549 566.037903,613.604797 
	C567.411316,613.242676 568.478699,612.917786 569.565369,612.681763 
	C577.045166,611.057434 578.039856,611.844788 578.041565,619.343689 
	C578.042236,622.338501 577.672913,625.390076 578.122314,628.315857 
	C578.941101,633.645996 576.404358,635.989075 571.597351,636.542480 
	C562.741760,637.562012 553.954712,637.894531 546.426270,631.841003 
	C539.088989,625.941162 536.394836,617.781250 538.471802,609.144531 
	C540.632690,600.158447 546.818542,593.818298 556.822021,591.633911 
z"/>
<path fill="#C7C8C9" opacity="1.000000" stroke="none" 
	d="
M766.141235,592.191956 
	C773.966675,592.058716 781.420593,591.670471 788.790955,592.284851 
	C793.922668,592.712585 798.279175,597.680664 798.860413,602.675903 
	C799.514404,608.295898 799.313049,614.048523 793.521362,617.089417 
	C788.662964,619.640381 783.375610,621.374390 777.256470,623.890198 
	C777.256470,626.626770 777.256470,630.875732 777.256470,636.020691 
	C773.645386,636.020691 770.556152,636.198486 767.510986,635.910522 
	C766.616333,635.825928 765.122253,634.415771 765.127380,633.620972 
	C765.215942,619.868286 765.495911,606.116760 766.141235,592.191956 
M786.190430,609.540161 
	C787.824890,602.681641 784.943970,600.048950 776.563049,601.883240 
	C777.156433,605.459473 777.763611,609.119263 778.370789,612.779114 
	C780.862976,611.936707 783.355103,611.094299 786.190430,609.540161 
z"/>
<path fill="#C7C8C9" opacity="1.000000" stroke="none" 
	d="
M444.841553,601.770996 
	C441.482941,601.434631 438.499176,600.898560 435.560303,601.081848 
	C431.723755,601.321167 429.495880,603.740112 428.147034,607.380066 
	C426.051636,613.034729 426.637695,618.277405 430.374298,622.836853 
	C434.069855,627.346191 439.115784,627.675110 444.449127,626.155273 
	C446.008514,625.710938 447.629883,625.484070 449.209778,625.160156 
	C451.371155,633.575073 449.814941,636.101990 441.774567,636.875122 
	C432.799835,637.738159 424.056213,636.748596 418.588531,628.614929 
	C413.025269,620.339050 412.206665,611.171448 417.204315,602.166626 
	C420.521912,596.188965 425.933685,592.417847 432.570007,591.297974 
	C437.205078,590.515747 442.135681,590.569763 446.811981,591.182922 
	C452.402344,591.916016 449.538940,596.680908 449.698914,599.668457 
	C449.856934,602.620483 447.691162,603.050537 444.841553,601.770996 
z"/>
<path fill="#C7C8C9" opacity="1.000000" stroke="none" 
	d="
M475.993042,622.989990 
	C475.950470,615.834229 475.913513,609.176880 475.846405,602.519897 
	C475.843475,602.228394 475.564026,601.939575 475.532837,601.879517 
	C473.108795,601.879517 470.814362,601.892273 468.520142,601.877014 
	C462.408020,601.836426 461.414520,600.915894 462.272156,594.842834 
	C462.467133,593.461914 464.435822,591.283081 465.630585,591.254578 
	C477.096527,590.981689 488.571625,591.091309 500.971985,591.091309 
	C500.971985,593.968506 501.533966,596.721863 500.756226,599.022217 
	C500.306549,600.352234 497.738464,601.661926 496.052765,601.759888 
	C487.981018,602.229492 487.975342,602.081238 487.981354,610.275757 
	C487.986359,617.102234 487.766357,623.938293 488.065613,630.751648 
	C488.243622,634.804749 487.118652,636.671936 482.836334,636.118469 
	C480.886688,635.866516 478.877441,636.075684 475.993042,636.075684 
	C475.993042,631.648071 475.993042,627.568298 475.993042,622.989990 
z"/>
<path fill="#117AB7" opacity="1.000000" stroke="none" 
	d="
M770.732300,395.016663 
	C769.001526,386.867096 772.554504,379.613312 779.253296,377.037170 
	C786.681885,374.180389 794.839050,376.830475 798.382263,383.251831 
	C802.025330,389.854004 800.548523,398.413696 795.020325,402.738525 
	C788.749939,407.644012 780.260254,407.390228 774.559143,401.754303 
	C772.872314,400.086792 772.045776,397.548950 770.732300,395.016663 
z"/>
<path fill="#E6FBFD" opacity="1.000000" stroke="none" 
	d="
M695.869141,428.100433 
	C696.286316,475.177155 696.286316,522.221863 696.286316,569.170166 
	C697.214478,569.536682 697.658997,569.866028 698.103333,569.865784 
	C731.378235,569.846619 764.653198,569.801392 798.383057,569.714722 
	C798.888916,570.503052 798.939758,571.334900 798.995361,572.583374 
	C791.960754,573.330872 784.922913,573.907654 777.882019,573.947021 
	C755.723328,574.070801 733.563049,574.057251 711.404602,573.917175 
	C708.379761,573.898071 705.380249,572.649170 702.332458,572.372742 
	C700.656128,572.220764 698.913940,573.024170 697.181885,573.181763 
	C695.856628,573.302368 693.998291,573.583618 693.299255,572.878845 
	C692.597595,572.171387 692.878967,570.314819 693.016724,568.991821 
	C693.198914,567.242859 693.956543,565.523315 693.958801,563.790527 
	C694.013611,521.971008 694.012695,480.151428 693.964417,438.331879 
	C693.961975,436.205658 693.109314,434.050476 693.291687,431.964661 
	C693.409851,430.613281 694.691589,429.363617 695.869141,428.100433 
z"/>
<path fill="#3082AE" opacity="1.000000" stroke="none" 
	d="
M792.983032,483.962067 
	C793.241089,484.192200 793.499146,484.422333 793.892090,485.293640 
	C794.026917,494.829041 794.026917,503.723267 794.026917,513.260193 
	C774.882874,513.260193 756.565308,513.260193 737.946594,513.260193 
	C737.946594,521.885193 737.866455,529.851257 738.039124,537.811890 
	C738.063110,538.916321 739.334900,539.993652 740.243286,541.340576 
	C741.332581,541.769104 742.207703,541.940552 742.992920,542.439331 
	C739.546387,543.522461 736.176453,543.928650 736.070923,539.078796 
	C735.900757,531.257141 735.904236,523.426208 736.079956,515.604736 
	C736.176697,511.296722 737.778320,508.728394 743.068970,508.912140 
	C754.876160,509.322205 766.726379,509.465027 778.523987,508.935120 
	C794.126038,508.234344 790.852234,511.620483 790.888611,495.409393 
	C790.908203,486.657257 790.309692,486.659119 781.471497,486.959473 
	C780.473633,486.993347 779.472900,486.940491 778.474792,486.970398 
	C767.196472,487.308167 755.916321,487.600159 744.641113,488.022583 
	C739.531677,488.214020 736.108948,485.339081 736.044250,480.287170 
	C735.961060,473.794769 735.912720,467.297119 736.116638,460.810089 
	C736.156189,459.550629 737.421997,458.329681 738.095642,457.553284 
	C738.069153,466.591736 738.069153,475.167908 738.069153,483.962067 
	C756.819336,483.962067 774.901184,483.962067 792.983032,483.962067 
z"/>
<path fill="#E6FBFD" opacity="1.000000" stroke="none" 
	d="
M740.029114,541.083496 
	C739.334900,539.993652 738.063110,538.916321 738.039124,537.811890 
	C737.866455,529.851257 737.946594,521.885193 737.946594,513.260193 
	C756.565308,513.260193 774.882874,513.260193 794.026917,513.260193 
	C794.026917,503.723267 794.026917,494.829041 794.082397,485.470032 
	C795.672974,485.525085 797.208069,486.044891 797.990601,486.309875 
	C797.990601,493.799744 798.025818,500.730469 797.980469,507.660675 
	C797.936829,514.330994 792.198181,518.192078 785.700928,517.946533 
	C773.875732,517.499573 762.007874,518.175110 750.158081,518.390564 
	C749.519836,518.402100 748.862305,518.619751 748.248840,518.521790 
	C742.225403,517.559998 741.875977,517.717468 742.042542,523.844360 
	C742.172424,528.621887 742.750427,533.387207 743.196228,539.000916 
	C745.459839,539.000916 747.542297,539.000916 749.624817,539.000854 
	C757.610413,539.000610 765.603210,539.209656 773.579407,538.936218 
	C780.432373,538.701355 787.260864,537.766785 794.113953,537.510620 
	C795.339539,537.464844 796.632385,539.218201 797.925415,540.480713 
	C797.956604,540.820557 797.973755,541.055420 797.531982,541.036377 
	C778.069824,541.039368 759.049500,541.061401 740.029114,541.083496 
z"/>
<path fill="#C7C8C9" opacity="1.000000" stroke="none" 
	d="
M399.857758,603.034485 
	C399.857574,614.118042 399.857574,624.706665 399.857574,635.623352 
	C396.089844,635.951477 392.665192,636.448669 389.250183,636.389282 
	C388.514160,636.376526 387.201813,634.363586 387.189148,633.260071 
	C387.042175,620.438232 386.996582,607.612244 387.246002,594.793579 
	C387.270447,593.539124 389.235840,591.929504 390.665222,591.216370 
	C391.867737,590.616455 393.614716,591.205933 395.098206,591.052185 
	C398.908966,590.657166 400.193787,592.456177 399.891113,596.047302 
	C399.709930,598.197083 399.857910,600.374512 399.857758,603.034485 
z"/>
<path fill="#D7F7FB" opacity="1.000000" stroke="none" 
	d="
M576.941284,427.670654 
	C563.488953,428.089111 550.059875,428.089111 536.267273,428.089111 
	C536.267273,475.203766 536.267273,522.029907 536.267273,569.782104 
	C549.456482,569.782104 562.667358,569.782104 576.327637,569.806030 
	C576.131348,571.165405 575.528564,573.627563 574.832825,573.654114 
	C570.230042,573.829590 565.605957,573.510437 560.991272,573.298401 
	C553.613892,572.959473 546.240173,572.434021 538.860596,572.345520 
	C537.494934,572.329163 536.109009,574.004700 534.366211,574.949646 
	C534.000000,575.000000 534.006714,575.005981 534.006714,575.005981 
	C533.422058,572.640137 531.437500,570.442322 533.767151,567.791016 
	C534.445679,567.018799 533.998352,565.221680 533.998535,563.894348 
	C534.005066,521.957458 534.009155,480.020538 533.979614,438.083649 
	C533.978455,436.451202 533.961731,434.700043 533.405396,433.208130 
	C531.416443,427.874115 533.806702,424.095459 539.503418,424.196655 
	C550.781433,424.397003 562.059570,424.671844 573.329895,425.114471 
	C574.567505,425.163086 575.754211,426.508362 576.941284,427.670654 
z"/>
<path fill="#E6FBFD" opacity="1.000000" stroke="none" 
	d="
M617.961426,496.060822 
	C618.033813,495.619202 618.106201,495.177582 618.551025,494.297791 
	C625.405518,487.511627 631.882874,481.158905 638.371033,474.817169 
	C644.494751,468.831635 650.629700,462.857666 657.063232,456.916473 
	C657.570496,456.962097 657.774231,456.969849 657.986694,456.986359 
	C657.995361,456.995117 658.014221,457.013397 658.014221,457.013397 
	C657.542053,458.241577 657.425659,460.088715 656.540100,460.597778 
	C650.661377,463.977295 649.223083,471.393280 642.723694,474.629578 
	C638.611938,476.676971 636.032959,481.789062 632.740234,485.503326 
	C631.777771,486.588989 630.890564,488.197235 629.684143,488.528351 
	C625.428711,489.696167 624.764587,493.064941 624.371948,496.528137 
	C624.256104,497.549988 625.039124,498.917511 625.812561,499.755066 
	C629.611389,503.868622 633.593628,507.812256 637.415344,511.905273 
	C639.973022,514.644531 642.346924,517.554321 644.844727,520.350586 
	C650.194031,526.339050 655.580688,532.294189 660.931519,538.281372 
	C664.115906,541.844421 666.629272,546.584656 670.568298,548.764465 
	C676.925293,552.282349 678.377136,559.584717 683.896973,563.412476 
	C685.321472,564.400269 686.809937,565.295837 688.373108,566.300720 
	C687.583923,567.979187 686.731018,570.243896 685.505371,572.284729 
	C684.007080,574.779785 679.757080,574.443237 677.395996,571.393799 
	C678.803833,570.693787 679.903992,570.385071 681.327881,570.016541 
	C682.464844,569.885864 683.278137,569.814941 684.842041,569.678528 
	C683.047852,567.477051 681.694214,565.652527 680.175232,563.977966 
	C667.010498,549.464722 653.844116,534.952759 640.619812,520.493896 
	C633.123535,512.297852 625.517883,504.201874 617.961426,496.060822 
z"/>
<path fill="#E6FBFD" opacity="1.000000" stroke="none" 
	d="
M798.383301,452.925598 
	C797.901062,446.049042 797.626953,439.078369 797.811279,432.119812 
	C797.911255,428.347900 796.618958,427.398468 792.924988,427.422668 
	C761.212769,427.630737 729.499084,427.631561 697.368286,427.626740 
	C698.024841,426.447662 699.093445,424.385559 700.174194,424.379120 
	C707.116943,424.337952 714.061279,424.932831 721.007019,424.972626 
	C739.461609,425.078400 757.917664,425.086426 776.372131,424.967255 
	C783.033691,424.924225 789.690613,424.305756 796.353516,424.206970 
	C797.494385,424.190033 799.637207,425.443695 799.656311,426.154907 
	C799.885498,434.702209 799.813354,443.258057 799.756348,451.811218 
	C799.754028,452.155121 799.121399,452.494843 798.383301,452.925598 
z"/>
<path fill="#E6FBFD" opacity="1.000000" stroke="none" 
	d="
M792.898438,483.566956 
	C774.901184,483.962067 756.819336,483.962067 738.069153,483.962067 
	C738.069153,475.167908 738.069153,466.591736 738.319519,457.520874 
	C738.569885,457.026184 738.982117,456.841339 738.982117,456.841339 
	C757.386475,456.884216 775.790955,456.949310 794.195129,456.916290 
	C795.332947,456.914246 796.469360,456.139618 797.777283,455.362122 
	C799.050964,456.526154 800.153809,458.052551 801.687561,460.175323 
	C799.889709,460.513855 798.939941,460.980316 798.132080,460.802460 
	C780.682373,456.960510 763.016602,459.690033 745.464294,459.156494 
	C740.084595,458.992950 742.617188,465.367126 740.070129,467.867859 
	C739.896912,468.037903 740.032532,468.512207 740.006226,468.843567 
	C738.996338,481.575012 739.387512,481.992981 752.346375,481.996216 
	C764.162231,481.999176 775.978516,481.954529 787.793579,482.054443 
	C789.470032,482.068573 791.140564,482.782043 792.898438,483.566956 
z"/>
<path fill="#D7F7FB" opacity="1.000000" stroke="none" 
	d="
M577.226685,569.803589 
	C576.866821,569.070068 576.904236,568.364807 577.297485,567.007080 
	C577.766602,549.110962 577.832703,531.866699 578.038879,514.624023 
	C578.073975,511.684113 578.708984,508.751404 579.278442,505.939270 
	C579.763794,506.263000 579.953735,506.523865 580.146301,507.101990 
	C580.521667,507.560150 580.810547,507.762115 581.375183,508.145630 
	C587.622253,515.759216 593.593506,523.191284 599.564758,530.623352 
	C598.282593,530.218811 596.611389,530.193787 595.783875,529.345581 
	C591.617126,525.074707 587.682556,520.577820 583.627441,516.196411 
	C583.228516,515.765381 582.564514,515.579712 581.282104,514.869629 
	C581.159851,517.138306 580.990051,518.848572 580.987793,520.559082 
	C580.968628,535.140198 580.953735,549.721497 581.006104,564.302429 
	C581.015564,566.934326 581.055481,569.392883 577.226685,569.803589 
z"/>
<path fill="#CCF1FA" opacity="1.000000" stroke="none" 
	d="
M640.976379,425.040527 
	C651.791138,425.234833 662.605957,425.429108 674.118042,425.328186 
	C676.878906,425.862030 678.942566,426.691071 680.555359,427.654175 
	C666.120850,427.815643 652.130249,428.103546 638.156921,427.736511 
	C632.898743,427.598389 629.634705,429.472473 626.409180,433.376373 
	C617.523743,444.130493 608.234741,454.551239 599.020874,465.014221 
	C598.936401,464.924591 598.774414,464.739044 598.774414,464.739044 
	C598.983459,462.109070 599.205872,459.924896 602.269226,458.387878 
	C605.177551,456.928650 606.051575,453.801880 602.403564,450.246002 
	C605.049988,450.506042 606.573853,450.655792 607.789246,450.775238 
	C613.241455,444.752655 618.870361,439.134674 623.738525,432.920746 
	C626.436401,429.477112 628.583618,426.001434 634.127075,425.939453 
	C636.859863,425.701111 638.918152,425.370819 640.976379,425.040527 
z"/>
<path fill="#F3FDFD" opacity="1.000000" stroke="none" 
	d="
M578.064941,429.980469 
	C580.563721,430.032776 581.507141,430.519318 581.408386,433.768677 
	C580.951538,448.794739 581.083557,463.839172 581.081970,478.877045 
	C581.081909,479.530914 581.843933,480.184875 582.713440,481.436584 
	C583.383362,482.678101 583.590759,483.321747 583.704468,484.034576 
	C583.610657,484.103729 583.593567,484.335419 583.215515,484.258179 
	C581.486450,484.556610 580.135437,484.932343 578.064941,485.508148 
	C578.064941,466.948151 578.064941,448.464325 578.064941,429.980469 
z"/>
<path fill="#F3FDFD" opacity="1.000000" stroke="none" 
	d="
M641.071289,424.639832 
	C638.918152,425.370819 636.859863,425.701111 634.403198,426.030273 
	C637.286987,421.125275 641.825867,418.832855 647.774292,418.964172 
	C654.894775,419.121399 662.024048,418.902618 669.142700,419.096130 
	C670.395508,419.130157 671.614990,420.388916 672.849854,421.082092 
	C671.560303,421.720612 670.282471,422.882690 668.979309,422.911865 
	C661.196533,423.085815 653.406982,422.934448 645.622192,423.054901 
	C644.131104,423.077972 642.651245,423.825714 641.071289,424.639832 
z"/>
<path fill="#D7F7FB" opacity="1.000000" stroke="none" 
	d="
M624.921692,562.090271 
	C617.855103,560.845276 616.030762,553.802368 611.532715,549.719543 
	C607.837341,546.365417 605.154663,541.838989 602.298401,537.644775 
	C601.144226,535.949951 600.721802,533.756958 600.274780,531.483032 
	C601.341797,531.837280 602.100403,532.499146 602.859009,533.161011 
	C602.859009,533.161011 602.934204,533.015381 602.937866,533.412659 
	C610.283142,542.913818 617.624695,552.017700 624.963013,561.364075 
	C624.959778,561.606628 624.921692,562.090271 624.921692,562.090271 
z"/>
<path fill="#287DAB" opacity="1.000000" stroke="none" 
	d="
M602.909790,532.781433 
	C602.100403,532.499146 601.341797,531.837280 600.287354,531.094971 
	C599.991455,531.014587 599.847900,530.742310 599.706299,530.682861 
	C593.593506,523.191284 587.622253,515.759216 581.295044,507.883484 
	C580.645935,507.241791 580.352844,507.043793 580.059753,506.845795 
	C579.953735,506.523865 579.763794,506.263000 579.200928,505.653870 
	C578.289795,504.797760 577.667603,504.350983 577.045410,503.904236 
	C578.223572,503.646759 579.902710,502.766602 580.492126,503.240845 
	C582.891113,505.171265 585.202698,507.323975 587.096436,509.746552 
	C592.109802,516.159912 596.916138,522.736450 601.729187,529.303467 
	C602.365051,530.171082 602.560974,531.361145 602.909790,532.781433 
z"/>
<path fill="#CCF1FA" opacity="1.000000" stroke="none" 
	d="
M577.958130,429.773315 
	C578.064941,448.464325 578.064941,466.948151 578.064941,485.508148 
	C580.135437,484.932343 581.486450,484.556610 583.104980,484.585358 
	C581.288696,487.617584 579.204834,490.245331 577.121033,492.873108 
	C577.058655,471.894043 576.996216,450.915009 577.026489,429.478088 
	C577.433411,429.108093 577.677490,429.290070 577.958130,429.773315 
z"/>
<path fill="#E6FBFD" opacity="1.000000" stroke="none" 
	d="
M672.015930,571.017090 
	C670.502869,572.005615 669.024719,573.778381 667.470642,573.847717 
	C660.513611,574.158081 653.532104,574.083679 646.566895,573.885559 
	C645.392700,573.852112 644.255310,572.528687 643.512085,571.398193 
	C653.287537,571.002441 662.651733,571.009766 672.015930,571.017090 
z"/>
<path fill="#CCF1FA" opacity="1.000000" stroke="none" 
	d="
M685.961182,430.990112 
	C679.221313,436.983032 672.481445,442.975922 665.266663,448.878418 
	C664.791748,448.788025 664.564270,448.435028 664.720337,448.152771 
	C666.930481,445.749573 669.039001,443.678192 671.027405,441.497253 
	C675.090820,437.040314 679.089600,432.524506 683.427551,428.056610 
	C684.480469,429.050262 685.220825,430.020172 685.961182,430.990112 
z"/>
<path fill="#CCF1FA" opacity="1.000000" stroke="none" 
	d="
M583.798218,483.965424 
	C583.590759,483.321747 583.383362,482.678101 583.113098,481.530457 
	C586.427734,476.899994 589.708740,472.688446 593.232117,468.690521 
	C594.561951,467.181519 596.452393,466.166504 598.430847,464.832672 
	C598.774414,464.739044 598.936401,464.924591 598.901428,465.327759 
	C593.843750,471.809113 588.820984,477.887268 583.798218,483.965424 
z"/>
<path fill="#E6FBFD" opacity="1.000000" stroke="none" 
	d="
M799.471680,568.905762 
	C799.017456,560.313171 798.955139,551.631348 799.006714,542.497192 
	C799.744080,543.682922 800.848694,545.304382 800.905518,546.961792 
	C801.120667,553.232849 801.046265,559.516357 800.947632,565.793091 
	C800.931702,566.806335 800.241882,567.809021 799.471680,568.905762 
z"/>
<path fill="#F3FDFD" opacity="1.000000" stroke="none" 
	d="
M686.329712,430.927460 
	C685.220825,430.020172 684.480469,429.050262 683.072754,427.982056 
	C681.939026,427.762573 681.472595,427.641327 681.006165,427.520111 
	C678.942566,426.691071 676.878906,425.862030 674.419556,425.036865 
	C675.844788,424.053284 677.881653,421.998535 679.438965,422.313721 
	C682.183533,422.869141 684.832092,424.624756 687.085266,426.423462 
	C687.728333,426.936768 686.868774,429.332336 686.329712,430.927460 
z"/>
<path fill="#CCF1FA" opacity="1.000000" stroke="none" 
	d="
M672.429199,571.013550 
	C662.651733,571.009766 653.287537,571.002441 643.452759,571.007324 
	C640.617432,571.014038 638.252686,571.008606 635.446289,570.768188 
	C635.004761,570.533203 635.001892,570.061584 635.463379,569.975830 
	C650.951355,569.952209 665.977783,570.014282 681.004211,570.076355 
	C679.903992,570.385071 678.803833,570.693787 677.338867,571.016602 
	C675.596924,571.023804 674.219727,571.016907 672.429199,571.013550 
z"/>
<path fill="#E6FBFD" opacity="1.000000" stroke="none" 
	d="
M635.001892,570.061584 
	C635.001892,570.061584 635.004761,570.533203 635.002625,570.769043 
	C629.190002,572.918030 629.190002,572.918030 626.034912,565.130005 
	C626.001404,564.344910 626.001892,564.172424 626.296997,563.976440 
	C626.785034,563.916077 626.978516,563.879333 627.154541,563.882446 
	C627.137024,563.922363 627.087036,563.851013 627.149048,564.104004 
	C627.474060,564.571350 627.737061,564.785645 628.256714,565.153564 
	C629.398254,566.383667 630.283142,567.460144 631.230957,568.870117 
	C631.671387,569.413940 632.048828,569.624329 632.750305,569.831543 
	C633.716858,569.906067 634.359375,569.983826 635.001892,570.061584 
z"/>
<path fill="#E6FBFD" opacity="1.000000" stroke="none" 
	d="
M664.918091,448.955750 
	C665.137756,453.499115 662.785767,455.920135 658.382690,457.004761 
	C658.014221,457.013397 657.995361,456.995117 657.999146,456.666016 
	C658.010071,455.908905 658.017334,455.480957 658.118530,454.811523 
	C658.496643,454.386902 658.780701,454.203705 659.279480,453.936218 
	C659.766479,453.677856 659.945801,453.435150 660.029175,453.075317 
	C660.026306,453.026886 660.123169,453.033020 660.317383,452.952026 
	C660.757080,452.709961 660.920959,452.488403 661.119507,452.066406 
	C661.235840,451.926392 661.591125,451.846588 661.895813,451.792847 
	C662.379272,451.392670 662.557983,451.046265 662.733887,450.762451 
	C662.731079,450.825012 662.637329,450.741974 662.957520,450.692139 
	C663.517456,450.076477 663.757263,449.510620 664.108215,448.783203 
	C664.219299,448.621613 664.564270,448.435028 664.564270,448.435028 
	C664.564270,448.435028 664.791748,448.788025 664.918091,448.955750 
z"/>
<path fill="#E6FBFD" opacity="1.000000" stroke="none" 
	d="
M748.265747,533.799438 
	C748.067871,533.012878 748.192871,532.274170 748.317871,531.535522 
	C748.735291,531.609985 749.152710,531.684387 749.570129,531.758789 
	C749.242981,532.454956 748.915771,533.151123 748.265747,533.799438 
z"/>
<path fill="#D7F7FB" opacity="1.000000" stroke="none" 
	d="
M533.996948,574.996643 
	C533.696411,575.498718 533.398926,576.004089 533.101379,576.509521 
	C532.895447,576.331970 532.689453,576.154480 532.483521,575.976990 
	C532.804443,575.679199 533.125366,575.381409 533.726440,575.044800 
	C534.006714,575.005981 534.000000,575.000000 533.996948,574.996643 
z"/>
<path fill="#E6FBFD" opacity="1.000000" stroke="none" 
	d="
M799.122681,573.206055 
	C799.432739,573.121887 799.865540,573.243713 800.298279,573.365601 
	C799.947266,573.381042 799.596313,573.396545 799.122681,573.206055 
z"/>
<path fill="#D7F7FB" opacity="1.000000" stroke="none" 
	d="
M626.002441,564.000000 
	C626.001892,564.172424 626.001404,564.344910 625.997498,564.776367 
	C625.676941,564.555603 625.359680,564.075745 625.357117,563.229980 
	C625.885498,562.799133 626.099243,562.734070 626.303223,562.691528 
	C626.293396,562.714050 626.278625,562.760742 626.186035,563.065308 
	C626.063171,563.579895 626.032776,563.789978 626.002441,564.000000 
z"/>
<path fill="#CCF1FA" opacity="1.000000" stroke="none" 
	d="
M626.312988,562.669067 
	C626.099243,562.734070 625.885498,562.799133 625.342896,562.927307 
	C625.013977,562.990479 624.978088,562.538391 624.949890,562.314331 
	C624.921692,562.090271 624.959778,561.606628 625.203613,561.480286 
	C625.735901,561.792358 626.024414,562.230713 626.312988,562.669067 
z"/>
<path fill="#E6FBFD" opacity="1.000000" stroke="none" 
	d="
M688.532715,561.550293 
	C688.477417,561.583374 688.588013,561.517273 688.532715,561.550293 
z"/>
<path fill="#287DAB" opacity="1.000000" stroke="none" 
	d="
M659.064758,454.020538 
	C658.780701,454.203705 658.496643,454.386902 657.847961,454.928772 
	C657.242126,455.817841 657.000916,456.348236 656.759766,456.878601 
	C650.629700,462.857666 644.494751,468.831635 638.371033,474.817169 
	C631.882874,481.158905 625.405518,487.511627 618.621094,493.969055 
	C616.444580,490.126740 620.107361,488.694458 621.969849,486.764771 
	C629.696411,478.759430 637.666931,470.989716 645.536682,463.122314 
	C648.453552,460.206329 651.307617,457.227081 654.246826,454.333984 
	C660.211853,448.462402 666.249878,442.664459 672.179504,436.757507 
	C673.715576,435.227325 674.961914,433.406281 677.005310,430.906464 
	C674.324219,430.252869 671.789062,429.170898 669.224487,429.095886 
	C661.240295,428.862305 653.242859,428.902130 645.254944,429.059113 
	C641.643066,429.130096 638.034973,429.676392 634.440613,430.129364 
	C633.687500,430.224274 632.826050,430.697418 632.312622,431.265656 
	C627.244324,436.874847 622.211304,442.516632 617.224121,448.198242 
	C612.804565,453.233124 608.331299,458.228912 604.105835,463.424255 
	C598.205139,470.679596 592.549438,478.133667 586.713623,485.442596 
	C584.347229,488.406219 581.822693,491.248810 579.242981,494.028381 
	C578.998352,494.291870 577.841064,493.708252 577.114258,493.195496 
	C579.204834,490.245331 581.288696,487.617584 583.483032,484.662598 
	C583.593567,484.335419 583.610657,484.103729 583.704468,484.034576 
	C588.820984,477.887268 593.843750,471.809113 598.985901,465.417419 
	C608.234741,454.551239 617.523743,444.130493 626.409180,433.376373 
	C629.634705,429.472473 632.898743,427.598389 638.156921,427.736511 
	C652.130249,428.103546 666.120850,427.815643 680.555359,427.654175 
	C681.472595,427.641327 681.939026,427.762573 682.760254,427.958344 
	C679.089600,432.524506 675.090820,437.040314 671.027405,441.497253 
	C669.039001,443.678192 666.930481,445.749573 664.720337,448.152771 
	C664.564270,448.435028 664.219299,448.621613 663.817383,448.882202 
	C663.156067,449.675842 662.896667,450.208893 662.637329,450.741974 
	C662.637329,450.741974 662.731079,450.825012 662.469116,450.865295 
	C662.001770,451.219238 661.796448,451.532928 661.591125,451.846588 
	C661.591125,451.846588 661.235840,451.926392 660.889771,452.091278 
	C660.244263,452.428802 660.104065,452.687775 660.123169,453.033020 
	C660.123169,453.033020 660.026306,453.026886 659.792969,453.126465 
	C659.254944,453.403870 659.090027,453.668701 659.064758,454.020538 
z"/>
<path fill="#287DAB" opacity="1.000000" stroke="none" 
	d="
M626.303223,562.691528 
	C626.024414,562.230713 625.735901,561.792358 625.206787,561.237732 
	C617.624695,552.017700 610.283142,542.913818 602.881104,533.471680 
	C608.882446,536.377686 614.402771,539.709900 617.382446,546.791687 
	C619.457703,551.723755 623.980652,555.633850 627.470886,559.951355 
	C627.845154,560.414307 628.954773,560.396545 629.168579,560.858521 
	C632.845154,568.802002 639.481873,567.503784 646.430481,567.201111 
	C655.839905,566.791138 665.302734,567.660217 674.745056,567.873779 
	C675.743347,567.896362 676.757812,567.203125 678.272766,566.659729 
	C675.760254,563.461426 673.727051,560.615479 671.427673,558.003784 
	C667.519226,553.564453 663.477539,549.240417 659.428894,544.927002 
	C654.235229,539.393677 648.862854,534.023926 643.779602,528.392151 
	C637.361755,521.281860 631.186768,513.952759 624.825928,506.790009 
	C624.008362,505.869324 622.651978,505.449799 621.637451,504.677002 
	C618.950745,502.630585 616.339905,500.504852 617.689819,496.280151 
	C625.517883,504.201874 633.123535,512.297852 640.619812,520.493896 
	C653.844116,534.952759 667.010498,549.464722 680.175232,563.977966 
	C681.694214,565.652527 683.047852,567.477051 684.842041,569.678528 
	C683.278137,569.814941 682.464844,569.885864 681.327881,570.016541 
	C665.977783,570.014282 650.951355,569.952209 635.463379,569.975830 
	C634.359375,569.983826 633.716858,569.906067 632.598267,569.564087 
	C631.804138,569.045471 631.486084,568.791077 631.167969,568.536682 
	C630.283142,567.460144 629.398254,566.383667 628.203735,564.893982 
	C627.625061,564.270874 627.356018,564.060974 627.087036,563.851013 
	C627.087036,563.851013 627.137024,563.922363 627.102051,563.634644 
	C626.804199,563.151550 626.541443,562.956116 626.278625,562.760742 
	C626.278625,562.760742 626.293396,562.714050 626.303223,562.691528 
z"/>
<path fill="#CCF1FA" opacity="1.000000" stroke="none" 
	d="
M577.038696,504.383392 
	C577.667603,504.350983 578.289795,504.797760 578.989441,505.529938 
	C578.708984,508.751404 578.073975,511.684113 578.038879,514.624023 
	C577.832703,531.866699 577.766602,549.110962 577.378479,566.661621 
	C577.079773,546.266479 577.055908,525.564514 577.038696,504.383392 
z"/>
<path fill="#1978AF" opacity="1.000000" stroke="none" 
	d="
M136.199127,484.320007 
	C154.636887,483.994781 173.236954,484.040405 191.835571,483.897888 
	C193.220291,483.887268 194.594681,482.527679 196.003220,481.375977 
	C197.000076,481.009094 197.967590,481.061493 199.771774,481.159180 
	C198.734116,483.157928 197.913635,484.738312 197.046585,486.659363 
	C197.000000,487.000000 197.001816,486.997772 197.001816,486.997772 
	C196.187378,487.104401 194.894516,486.923859 194.631775,487.361633 
	C191.701035,492.244263 186.961975,490.935486 182.666611,490.960327 
	C172.040390,491.021820 161.413574,490.982208 150.786987,490.979156 
	C148.323578,490.978455 146.436462,490.873901 144.535934,488.259918 
	C143.020340,486.175415 139.173218,485.786041 136.199127,484.320007 
z"/>
<path fill="#097ABD" opacity="1.000000" stroke="none" 
	d="
M232.850433,433.370789 
	C233.349014,434.220245 233.955612,435.451782 233.957031,436.684021 
	C234.004028,477.614594 233.994980,518.545227 233.974716,559.475830 
	C233.974396,560.120361 233.732162,560.764832 233.310608,561.707092 
	C232.678940,560.450439 232.045181,558.896362 232.043045,557.341431 
	C231.988510,517.768433 231.992081,478.195404 232.028702,438.622375 
	C232.030197,436.999115 232.450897,435.376221 232.850433,433.370789 
z"/>
<path fill="#1978AF" opacity="1.000000" stroke="none" 
	d="
M96.416809,432.940521 
	C97.241539,431.665131 98.456497,429.210602 99.723572,429.183411 
	C109.272018,428.978394 118.830727,429.250854 128.684265,429.659912 
	C124.090828,433.335388 118.623650,432.822388 113.077286,432.589386 
	C107.675598,432.362518 102.247612,432.761414 96.416809,432.940521 
z"/>
<path fill="#097ABD" opacity="1.000000" stroke="none" 
	d="
M207.240387,430.300323 
	C213.203293,430.092926 219.406082,430.188416 225.811752,430.622559 
	C219.836502,430.841858 213.658386,430.722534 207.240387,430.300323 
z"/>
<path fill="#1978AF" opacity="1.000000" stroke="none" 
	d="
M112.941475,567.563354 
	C108.096954,567.578003 103.139503,567.206116 98.083725,566.445557 
	C102.933113,566.430237 107.880829,566.803528 112.941475,567.563354 
z"/>
<path fill="#1978AF" opacity="1.000000" stroke="none" 
	d="
M133.679504,481.039062 
	C134.313828,481.765686 134.634109,482.538330 134.980133,483.622833 
	C134.308350,483.856384 133.610855,483.778076 132.913345,483.699768 
	C133.064056,482.828217 133.214767,481.956665 133.679504,481.039062 
z"/>
<path fill="#1978AF" opacity="1.000000" stroke="none" 
	d="
M96.948914,563.680664 
	C96.450035,563.145447 95.969803,562.270691 95.741409,561.197754 
	C96.318016,561.780090 96.642784,562.560608 96.948914,563.680664 
z"/>
<path fill="#1978AF" opacity="1.000000" stroke="none" 
	d="
M132.699219,561.032532 
	C132.994095,561.448425 132.991577,561.903992 132.976349,562.701721 
	C132.776398,562.386658 132.589127,561.729431 132.699219,561.032532 
z"/>
<path fill="#1978AF" opacity="1.000000" stroke="none" 
	d="
M132.190704,432.233521 
	C132.582993,432.170715 133.126343,432.356750 133.811462,432.802246 
	C133.416061,432.868591 132.878922,432.675507 132.190704,432.233521 
z"/>
<path fill="#1978AF" opacity="1.000000" stroke="none" 
	d="
M130.184204,430.236267 
	C130.573608,430.163025 131.123520,430.337524 131.835251,430.759308 
	C131.446289,430.832397 130.895508,430.658203 130.184204,430.236267 
z"/>
<path fill="#1978AF" opacity="1.000000" stroke="none" 
	d="
M196.998810,487.000916 
	C197.116852,487.139069 197.236084,487.276306 197.355316,487.413544 
	C197.273880,487.364258 197.192429,487.314972 197.056396,487.131714 
	C197.001816,486.997772 197.000000,487.000000 196.998810,487.000916 
z"/>
<path fill="#F3FDFD" opacity="1.000000" stroke="none" 
	d="
M879.179565,396.008301 
	C879.179565,396.008301 878.943909,396.405792 878.659058,396.839478 
	C874.040283,405.086090 866.025330,407.955109 858.661438,404.329529 
	C851.395447,400.752167 848.345032,392.416351 851.565308,384.938141 
	C854.689758,377.682373 863.303772,374.272339 870.828369,377.312256 
	C877.630493,380.060333 880.625000,386.764191 879.179565,396.008301 
z"/>
<path fill="#287DAB" opacity="1.000000" stroke="none" 
	d="
M879.559692,395.904236 
	C880.625000,386.764191 877.630493,380.060333 870.828369,377.312256 
	C863.303772,374.272339 854.689758,377.682373 851.565308,384.938141 
	C848.345032,392.416351 851.395447,400.752167 858.661438,404.329529 
	C866.025330,407.955109 874.040283,405.086090 878.647217,397.070251 
	C878.931519,403.606232 871.571045,409.043701 863.521423,408.243103 
	C855.347900,407.430176 849.694885,401.333069 848.117920,391.629883 
	C847.142029,385.624878 851.285828,379.045837 857.947266,376.024170 
	C865.602051,372.551880 876.626892,375.468292 879.963928,383.038391 
	C881.532715,386.597260 880.043396,391.504150 879.559692,395.904236 
z"/>
<path fill="#027BC1" opacity="1.000000" stroke="none" 
	d="
M388.980713,531.000000 
	C388.979828,499.843506 388.978088,469.187012 388.978729,438.530518 
	C388.978882,431.159363 388.983246,431.183075 396.215790,430.967560 
	C406.668274,430.656097 417.120270,430.020294 427.571198,430.045807 
	C440.358917,430.077026 453.224915,429.905396 465.902496,431.263977 
	C473.566559,432.085297 481.853546,434.220764 488.215363,438.319458 
	C496.773773,443.833374 506.186188,449.952332 508.133698,461.397583 
	C508.960999,466.259430 508.316284,471.403503 508.080261,476.406982 
	C507.744476,483.523865 505.498413,489.910675 500.160706,494.933990 
	C498.783295,496.230286 497.625031,497.921631 496.018311,498.782471 
	C490.576477,501.698181 486.795441,507.217987 480.006622,508.152100 
	C475.459717,508.777710 473.629028,513.562439 476.319580,517.318665 
	C479.284515,521.458008 482.906281,525.124512 486.211243,529.023071 
	C491.175659,534.879089 496.084198,540.782776 501.074493,546.616516 
	C503.625061,549.598206 506.299988,552.473572 508.922028,555.394043 
	C511.966797,558.785400 515.015137,562.173523 518.752625,566.331421 
	C516.508484,566.669861 515.308289,567.004089 514.106995,567.008301 
	C502.444336,567.049316 490.779663,567.137329 479.120483,566.933655 
	C477.222595,566.900452 473.805725,565.664673 473.709106,564.717529 
	C472.978271,557.554199 466.638702,554.637329 463.070801,549.695068 
	C459.967957,545.396973 456.681610,541.231567 453.556580,536.949097 
	C450.236603,532.399536 446.813965,527.906616 443.791016,523.162842 
	C439.395294,516.264954 433.691620,513.562927 425.015930,517.049744 
	C425.015930,518.478271 425.015656,520.411804 425.015991,522.345398 
	C425.018188,535.507690 424.919006,548.671265 425.085358,561.831482 
	C425.134552,565.720032 423.813934,567.246277 419.872559,567.080994 
	C414.384094,566.850891 408.872620,566.868958 403.382599,567.081055 
	C399.673065,567.224426 396.041779,563.569763 392.304474,566.877075 
	C391.201813,565.081360 389.203796,563.314209 389.145508,561.485229 
	C388.827271,551.498596 388.985962,541.496643 388.980713,531.000000 
M427.358093,457.125610 
	C426.575623,458.726501 425.157623,460.311249 425.116394,461.931000 
	C424.892548,470.731323 424.987732,479.540314 425.016541,488.346191 
	C425.030212,492.531342 427.296539,494.322571 431.571106,493.930298 
	C436.169250,493.508331 440.786285,493.103638 445.396088,493.092102 
	C447.160797,493.087677 449.255493,495.118195 450.637573,494.629913 
	C456.504517,492.557129 462.417694,490.346069 467.826111,487.315002 
	C474.116791,483.789429 470.907043,477.096313 471.689087,471.791779 
	C472.166534,468.553406 471.777252,465.187225 471.777252,461.446259 
	C471.078491,461.123718 469.580170,460.536072 468.179840,459.769470 
	C456.239990,453.233307 443.377899,454.183502 430.529572,455.164185 
	C429.990295,455.205353 429.527863,456.252716 428.624695,457.062408 
	C428.624695,457.062408 428.164642,457.138031 427.358093,457.125610 
z"/>
<path fill="#FFFFFF" opacity="1.000000" stroke="none" 
	d="
M674.860596,601.956665 
	C679.993958,606.515015 680.873718,612.095276 679.741882,618.081238 
	C678.603455,624.102356 674.878723,627.051880 669.046875,627.059631 
	C663.527100,627.067017 659.212036,623.740173 658.290833,618.086304 
	C657.763184,614.848022 657.628601,611.354248 658.253845,608.158813 
	C659.647705,601.036255 667.048462,598.302246 674.860596,601.956665 
z"/>
<path fill="#FFFFFF" opacity="1.000000" stroke="none" 
	d="
M606.959595,606.003418 
	C607.046143,604.266663 607.132690,602.985657 607.214111,601.780396 
	C613.297852,600.357056 616.587402,601.464050 617.015259,605.047729 
	C617.398621,608.259277 616.282715,610.539185 612.720093,610.946045 
	C609.341125,611.331970 606.214050,611.376587 606.959595,606.003418 
z"/>
<path fill="#027AC1" opacity="1.000000" stroke="none" 
	d="
M739.053162,456.490997 
	C738.982117,456.841339 738.569885,457.026184 738.346008,457.058563 
	C737.421997,458.329681 736.156189,459.550629 736.116638,460.810089 
	C735.912720,467.297119 735.961060,473.794769 736.044250,480.287170 
	C736.108948,485.339081 739.531677,488.214020 744.641113,488.022583 
	C755.916321,487.600159 767.196472,487.308167 778.474792,486.970398 
	C779.472900,486.940491 780.473633,486.993347 781.471497,486.959473 
	C790.309692,486.659119 790.908203,486.657257 790.888611,495.409393 
	C790.852234,511.620483 794.126038,508.234344 778.523987,508.935120 
	C766.726379,509.465027 754.876160,509.322205 743.068970,508.912140 
	C737.778320,508.728394 736.176697,511.296722 736.079956,515.604736 
	C735.904236,523.426208 735.900757,531.257141 736.070923,539.078796 
	C736.176453,543.928650 739.546387,543.522461 743.452515,542.420044 
	C757.648499,542.084106 771.294983,542.094849 785.043701,542.455383 
	C787.338928,544.350220 789.447754,545.217346 791.385254,542.067810 
	C792.147522,542.060120 792.583130,542.055969 793.227417,542.298828 
	C794.278442,542.691101 795.120667,542.836365 796.204712,543.161621 
	C796.646851,543.901245 796.847229,544.460876 797.047607,545.020508 
	C796.707764,551.309082 796.483948,557.608154 795.916565,563.876099 
	C795.819580,564.947632 794.322205,566.667908 793.356384,566.751160 
	C789.136292,567.115112 784.873718,567.027039 780.626526,567.029419 
	C756.801697,567.043030 732.976929,567.050842 709.152100,567.017578 
	C705.821289,567.012939 701.545898,567.941223 699.465942,566.261108 
	C697.866272,564.968994 698.973999,560.256104 698.972961,557.064331 
	C698.960266,516.745361 698.964844,476.426453 698.965027,436.107513 
	C698.965027,434.204010 698.965088,432.300537 698.965088,430.976074 
	C703.226746,430.580658 706.571411,430.012299 709.917847,430.001221 
	C733.409241,429.923340 756.901123,429.913971 780.392395,430.005859 
	C784.350159,430.021362 788.331299,430.468079 792.244812,431.079224 
	C793.276611,431.240356 794.804749,432.692383 794.896667,433.665649 
	C795.425171,439.266602 795.699768,444.900208 795.783325,450.526855 
	C795.799133,451.596649 794.737854,453.445679 793.888916,453.631012 
	C790.491333,454.372803 786.979309,454.969940 783.513672,454.949585 
	C773.052551,454.888031 762.529541,453.754944 752.164185,454.626617 
	C747.922913,454.983276 742.892395,451.584106 739.053162,456.490997 
z"/>
<path fill="#2379AA" opacity="1.000000" stroke="none" 
	d="
M797.297913,544.802368 
	C796.847229,544.460876 796.646851,543.901245 796.003296,542.905884 
	C794.713013,542.330750 793.865906,542.191284 793.018738,542.051758 
	C792.583130,542.055969 792.147522,542.060120 790.947632,542.047302 
	C788.436035,542.055420 786.688721,542.080505 784.941406,542.105591 
	C771.294983,542.094849 757.648499,542.084106 743.542480,542.092651 
	C742.207703,541.940552 741.332581,541.769104 740.243286,541.340576 
	C759.049500,541.061401 778.069824,541.039368 797.535217,541.154053 
	C797.836243,542.388611 797.692200,543.486450 797.297913,544.802368 
z"/>
<path fill="#F3FDFD" opacity="1.000000" stroke="none" 
	d="
M786.018860,609.895996 
	C783.355103,611.094299 780.862976,611.936707 778.370850,612.779114 
	C777.763611,609.119263 777.156433,605.459473 776.563049,601.883240 
	C784.943970,600.048950 787.824890,602.681641 786.018860,609.895996 
z"/>
<path fill="#CCF1FA" opacity="1.000000" stroke="none" 
	d="
M657.063232,456.916473 
	C657.000916,456.348236 657.242126,455.817841 657.753906,455.170227 
	C658.017334,455.480957 658.010071,455.908905 657.990417,456.657227 
	C657.774231,456.969849 657.570496,456.962097 657.063232,456.916473 
z"/>
<path fill="#CCF1FA" opacity="1.000000" stroke="none" 
	d="
M580.146301,507.101990 
	C580.352844,507.043793 580.645935,507.241791 581.019165,507.701965 
	C580.810547,507.762115 580.521667,507.560150 580.146301,507.101990 
z"/>
<path fill="#CCF1FA" opacity="1.000000" stroke="none" 
	d="
M631.230957,568.870117 
	C631.486084,568.791077 631.804138,569.045471 632.274231,569.567322 
	C632.048828,569.624329 631.671387,569.413940 631.230957,568.870117 
z"/>
<path fill="#D7F7FB" opacity="1.000000" stroke="none" 
	d="
M627.149048,564.104004 
	C627.356018,564.060974 627.625061,564.270874 627.947021,564.740417 
	C627.737061,564.785645 627.474060,564.571350 627.149048,564.104004 
z"/>
<path fill="#CCF1FA" opacity="1.000000" stroke="none" 
	d="
M626.186035,563.065308 
	C626.541443,562.956116 626.804199,563.151550 627.119507,563.594727 
	C626.978516,563.879333 626.785034,563.916077 626.296997,563.976440 
	C626.032776,563.789978 626.063171,563.579895 626.186035,563.065308 
z"/>
<path fill="#CCF1FA" opacity="1.000000" stroke="none" 
	d="
M662.957520,450.692139 
	C662.896667,450.208893 663.156067,449.675842 663.706299,449.043762 
	C663.757263,449.510620 663.517456,450.076477 662.957520,450.692139 
z"/>
<path fill="#CCF1FA" opacity="1.000000" stroke="none" 
	d="
M659.279480,453.936218 
	C659.090027,453.668701 659.254944,453.403870 659.795776,453.174927 
	C659.945801,453.435150 659.766479,453.677856 659.279480,453.936218 
z"/>
<path fill="#CCF1FA" opacity="1.000000" stroke="none" 
	d="
M660.317383,452.952026 
	C660.104065,452.687775 660.244263,452.428802 660.773438,452.231293 
	C660.920959,452.488403 660.757080,452.709961 660.317383,452.952026 
z"/>
<path fill="#CCF1FA" opacity="1.000000" stroke="none" 
	d="
M661.895813,451.792847 
	C661.796448,451.532928 662.001770,451.219238 662.471924,450.802704 
	C662.557983,451.046265 662.379272,451.392670 661.895813,451.792847 
z"/>
<path fill="#F3FDFD" opacity="1.000000" stroke="none" 
	d="
M428.164642,457.138031 
	C428.164642,457.138031 428.624695,457.062408 429.287140,457.019287 
	C438.569489,457.358337 447.287750,457.071136 455.780548,458.318665 
	C463.630402,459.471710 468.515045,465.917816 468.961670,473.200989 
	C469.382446,480.062622 464.943726,485.955536 457.254120,488.739746 
	C447.918213,492.120056 438.310974,490.920929 428.164642,490.873901 
	C428.164642,479.335968 428.164642,468.237000 428.164642,457.138031 
z"/>
<path fill="#2379AA" opacity="1.000000" stroke="none" 
	d="
M427.761353,457.131836 
	C428.164642,468.237000 428.164642,479.335968 428.164642,490.873901 
	C438.310974,490.920929 447.918213,492.120056 457.254120,488.739746 
	C464.943726,485.955536 469.382446,480.062622 468.961670,473.200989 
	C468.515045,465.917816 463.630402,459.471710 455.780548,458.318665 
	C447.287750,457.071136 438.569489,457.358337 429.489594,456.903717 
	C429.527863,456.252716 429.990295,455.205353 430.529572,455.164185 
	C443.377899,454.183502 456.239990,453.233307 468.179840,459.769470 
	C469.580170,460.536072 471.078491,461.123718 471.777252,461.446259 
	C471.777252,465.187225 472.166534,468.553406 471.689087,471.791779 
	C470.907043,477.096313 474.116791,483.789429 467.826111,487.315002 
	C462.417694,490.346069 456.504517,492.557129 450.637573,494.629913 
	C449.255493,495.118195 447.160797,493.087677 445.396088,493.092102 
	C440.786285,493.103638 436.169250,493.508331 431.571106,493.930298 
	C427.296539,494.322571 425.030212,492.531342 425.016541,488.346191 
	C424.987732,479.540314 424.892548,470.731323 425.116394,461.931000 
	C425.157623,460.311249 426.575623,458.726501 427.761353,457.131836 
z"/>
<path fill="#3082AE" opacity="1.000000" stroke="none" 
	d="
M785.043701,542.455383 
	C786.688721,542.080505 788.436035,542.055420 790.620972,542.050842 
	C789.447754,545.217346 787.338928,544.350220 785.043701,542.455383 
z"/>
<path fill="#3082AE" opacity="1.000000" stroke="none" 
	d="
M793.227417,542.298828 
	C793.865906,542.191284 794.713013,542.330750 795.761597,542.725891 
	C795.120667,542.836365 794.278442,542.691101 793.227417,542.298828 
z"/>
</svg>