<svg xmlns="http://www.w3.org/2000/svg" xmlns:xlink="http://www.w3.org/1999/xlink" viewBox="0 0 132 130.96"><defs><style>.cls-1{fill:url(#linear-gradient);}.cls-2{fill:url(#linear-gradient-2);}.cls-3{fill:url(#linear-gradient-3);}</style><linearGradient id="linear-gradient" x1="33.43" y1="18.71" x2="89.12" y2="18.71" gradientUnits="userSpaceOnUse"><stop offset="0" stop-color="#e1e1e1"/><stop offset="1" stop-color="#818181"/></linearGradient><linearGradient id="linear-gradient-2" x1="5.95" y1="6.91" x2="95.98" y2="147.81" xlink:href="#linear-gradient"/><linearGradient id="linear-gradient-3" x1="37.37" y1="-13.16" x2="127.4" y2="127.74" xlink:href="#linear-gradient"/></defs><g id="Layer_2" data-name="Layer 2"><g id="OBJECTS"><path class="cls-1" d="M49.31,0H82.69a6.41,6.41,0,0,1,5,10.43L66,37.42l-21.68-27A6.41,6.41,0,0,1,49.31,0Z"/><path class="cls-2" d="M17.05,0,5.49,18A34.58,34.58,0,0,0,7.62,58.33L66,131l28.21-35.1L17.16,0Z"/><path class="cls-3" d="M115,0l11.55,18a34.58,34.58,0,0,1-2.13,40.35L66,131,37.79,95.86,114.84,0Z"/></g></g></svg>