<svg viewBox="0 -2.7755575615628914e-17 139.42009434021008 34" xmlns="http://www.w3.org/2000/svg" width="2500" height="610"><g fill="#01a71c"><path d="M46.2 26.37a18.85 18.85 0 0 1-2.57-.2 25 25 0 0 1-2.74-.53v-1.39a25.31 25.31 0 0 0 2.71.53 18 18 0 0 0 2.5.2 5.51 5.51 0 0 0 3.29-.84 2.79 2.79 0 0 0 1.14-2.39 2.85 2.85 0 0 0-1.24-2.49 6 6 0 0 0-1.29-.71q-.78-.29-1.67-.55a15.93 15.93 0 0 1-2.33-.87 5.92 5.92 0 0 1-1.58-1.05 3.6 3.6 0 0 1-.9-1.34 5 5 0 0 1-.29-1.74 4.46 4.46 0 0 1 .41-1.93 4.31 4.31 0 0 1 1.17-1.5 5.26 5.26 0 0 1 1.82-1A8 8 0 0 1 47 8.28a20.51 20.51 0 0 1 4.41.57v1.42a20 20 0 0 0-2.23-.44 15.2 15.2 0 0 0-2-.15 4.86 4.86 0 0 0-3.08.9A2.9 2.9 0 0 0 42.88 13a3.25 3.25 0 0 0 .21 1.21 2.61 2.61 0 0 0 .7 1 4.83 4.83 0 0 0 1.27.79 14.31 14.31 0 0 0 2 .68q1.11.33 2.06.71a6.21 6.21 0 0 1 1.65.94 4.09 4.09 0 0 1 1.1 1.38 4.54 4.54 0 0 1 .4 2 4.15 4.15 0 0 1-1.56 3.48 7.16 7.16 0 0 1-4.51 1.18zM60.62 26.32a5.46 5.46 0 0 1-4.28-1.62 6.9 6.9 0 0 1-1.46-4.7 7.8 7.8 0 0 1 1.43-5 5 5 0 0 1 4.14-1.75 4.24 4.24 0 0 1 3.47 1.43 6.48 6.48 0 0 1 1.18 4.12v.92a3.22 3.22 0 0 1-.09.64h-8.57a5.39 5.39 0 0 0 1.17 3.5A4.18 4.18 0 0 0 60.8 25a10.52 10.52 0 0 0 1.82-.17 11.77 11.77 0 0 0 1.93-.52l.12 1.27a10.68 10.68 0 0 1-2 .55 11.47 11.47 0 0 1-2.05.19zm-.22-11.89q-3.68 0-3.94 4.74h7.15a6.49 6.49 0 0 0-.78-3.63 2.76 2.76 0 0 0-2.43-1.11zM68.64 7h1.58v19.11h-1.58zM79.56 26.32a5.46 5.46 0 0 1-4.28-1.62 6.9 6.9 0 0 1-1.45-4.7 7.8 7.8 0 0 1 1.43-5 5 5 0 0 1 4.14-1.75 4.24 4.24 0 0 1 3.47 1.43A6.48 6.48 0 0 1 84 18.8v.92a3.22 3.22 0 0 1-.09.64h-8.53a5.4 5.4 0 0 0 1.17 3.5 4.18 4.18 0 0 0 3.2 1.14 10.52 10.52 0 0 0 1.82-.17 11.8 11.8 0 0 0 1.93-.52l.12 1.27a10.68 10.68 0 0 1-2 .55 11.47 11.47 0 0 1-2.06.19zm-.21-11.89q-3.68 0-3.94 4.74h7.15a6.49 6.49 0 0 0-.78-3.63 2.76 2.76 0 0 0-2.43-1.11zM87.51 13.37h1.32l.12 1.49h.12q.94-.45 1.72-.78t1.43-.54a8.42 8.42 0 0 1 1.2-.31 6.54 6.54 0 0 1 1.1-.09A3.3 3.3 0 0 1 97 14a3.63 3.63 0 0 1 .83 2.63v9.51h-1.59v-9a3 3 0 0 0-.55-2 2.18 2.18 0 0 0-1.69-.6 7.25 7.25 0 0 0-2.24.41 20.1 20.1 0 0 0-2.67 1.12v10h-1.58zM102.75 10.52a.93.93 0 0 1-1.06-1 1.06 1.06 0 0 1 2.12 0 .93.93 0 0 1-1.06 1zm-.8 2.85h1.58v12.74h-1.58zM110.81 26.34q-3.14 0-3.14-3.47v-9.5h1.58v9a3.16 3.16 0 0 0 .48 2 1.92 1.92 0 0 0 1.59.6 6.83 6.83 0 0 0 2.48-.48q1.25-.48 2.59-1.14v-9.98H118v12.74h-1.32l-.12-1.58h-.09l-1.73.81q-.74.34-1.38.57a7.9 7.9 0 0 1-1.23.33 7.34 7.34 0 0 1-1.32.1zM122.18 13.37h1.3l.14 1.49h.09a19.53 19.53 0 0 1 2.58-1.31 5.51 5.51 0 0 1 2-.41 2.83 2.83 0 0 1 3 1.77h.12q.8-.5 1.45-.83a12.61 12.61 0 0 1 1.2-.54 6.17 6.17 0 0 1 1-.31 5.18 5.18 0 0 1 1-.09 3.3 3.3 0 0 1 2.45.84 3.63 3.63 0 0 1 .83 2.63v9.51h-1.56v-9a2.9 2.9 0 0 0-.55-2 2.21 2.21 0 0 0-1.69-.59 5.14 5.14 0 0 0-1.78.38A14.45 14.45 0 0 0 131.6 16v10.1H130v-9a2.9 2.9 0 0 0-.55-2 2.21 2.21 0 0 0-1.69-.59 5.24 5.24 0 0 0-1.86.4 14 14 0 0 0-2.14 1.09v10.11h-1.58zM21.45 21.51a2.49 2.49 0 0 0-2.55 2.21.08.08 0 0 0 .08.1h4.95a.08.08 0 0 0 .08-.09 2.41 2.41 0 0 0-2.56-2.22z"/><path d="M32.06 4.91L21.56 16.7a.32.32 0 0 1-.47 0l-5.36-5.53a.32.32 0 0 1 0-.4L17.5 8.5a.32.32 0 0 1 .52 0l3 3.32a.32.32 0 0 0 .49 0L29.87.36a.23.23 0 0 0-.18-.36H.25A.25.25 0 0 0 0 .25v33.5a.25.25 0 0 0 .25.25h32a.25.25 0 0 0 .25-.25V5.06a.23.23 0 0 0-.44-.15zm-23 25.36a8.08 8.08 0 0 1-5.74-2 .31.31 0 0 1 0-.41l1.25-1.75A.31.31 0 0 1 5 26a6.15 6.15 0 0 0 4.2 1.64c1.64 0 2.44-.76 2.44-1.56 0-2.48-8.08-.78-8.08-6.06 0-2.33 2-4.27 5.32-4.27a7.88 7.88 0 0 1 5.25 1.76.31.31 0 0 1 0 .43l-1.23 1.71a.31.31 0 0 1-.45.05 6.08 6.08 0 0 0-3.84-1.32c-1.28 0-2 .57-2 1.41 0 2.23 8.06.74 8.06 6 0 2.54-1.83 4.48-5.62 4.48zm17.62-4.87a.27.27 0 0 1-.28.28H19a.09.09 0 0 0-.08.1 2.81 2.81 0 0 0 3 2.32 4.62 4.62 0 0 0 2.56-.84.27.27 0 0 1 .4.06l.9 1.31a.28.28 0 0 1-.06.37 6.67 6.67 0 0 1-4.1 1.28 5.28 5.28 0 0 1-5.57-5.48 5.31 5.31 0 0 1 5.4-5.46c3.11 0 5.22 2.33 5.22 5.74z"/></g></svg>