<?xml version="1.0" encoding="utf-8"?>
<!-- Generator: Adobe Illustrator 25.0.1, SVG Export Plug-In . SVG Version: 6.00 Build 0)  -->
<svg version="1.0" id="katman_1" xmlns="http://www.w3.org/2000/svg" xmlns:xlink="http://www.w3.org/1999/xlink" x="0px" y="0px"
	 viewBox="0 0 470 354" style="enable-background:new 0 0 470 354;" xml:space="preserve">
<style type="text/css">
	.st0{fill:#3498DB;}
</style>
<g>
	<path class="st0" d="M180.9,63c-6.9,0-13.7,3.9-17.2,9.9l-54.1,94c-3.4,6-3.4,13.8,0,19.9l54.1,94c3.5,6,10.2,9.9,17.2,9.9h108.3
		c6.9,0,13.7-3.9,17.2-9.9l54.1-94c3.4-6,3.4-13.8,0-19.9l-54.1-94c-3.5-6-10.2-9.9-17.2-9.9H180.9L180.9,63z M181.8,118
		c0.1,0,0.3,0,0.5,0H201c0.8,0,1.6,0.5,2,1.2l31.7,56.5c0.2,0.3,0.3,0.6,0.3,0.9c0-0.3,0.1-0.6,0.3-0.9l31.6-56.5
		c0.4-0.7,1.3-1.2,2.1-1.2h18.7c1.7,0,2.9,2.1,2.1,3.6l-30.9,55.3l30.9,55.2c0.8,1.5-0.4,3.7-2.1,3.6H269c-0.9,0-1.7-0.5-2.1-1.3
		L235.3,178c-0.2-0.3-0.3-0.6-0.3-0.9c0,0.3-0.1,0.6-0.3,0.9L203,234.5c-0.4,0.7-1.2,1.3-2,1.3h-18.7c-1.7,0-3-2.2-2.1-3.6
		l30.9-55.2l-30.9-55.3C179.4,120.2,180.3,118.3,181.8,118L181.8,118L181.8,118z"/>
</g>
</svg>
